<svg id="Vrstva_1" data-name="Vrstva 1" xmlns="http://www.w3.org/2000/svg" viewBox="0 0 611.28 609.89"><defs><style>.cls-1{opacity:1;}.cls-2{fill:none;}.cls-3{fill:#747474;}</style></defs><g id="Group_1" data-name="Group 1" class="cls-1"><g id="Ellipse_2" data-name="Ellipse 2"><ellipse class="cls-2" cx="306.52" cy="302.68" rx="36" ry="35.5"/><path class="cls-3" d="M307.1,338.17v-.5c1,0,2-.07,3-.16l.05.49C309.12,338.1,308.11,338.16,307.1,338.17Zm-3-.07c-1-.07-2-.18-3-.32l.08-.5c1,.15,2,.25,3,.32Zm9-.51-.09-.5c1-.17,1.94-.39,2.9-.65l.13.48C315.08,337.18,314.09,337.41,313.11,337.59Zm-15-.38c-1-.23-2-.51-2.91-.82l.16-.47c.94.3,1.9.57,2.86.8ZM318.93,336l-.17-.48c.92-.33,1.85-.71,2.75-1.12l.21.45C320.81,335.29,319.87,335.68,318.93,336Zm-26.55-.69c-.92-.38-1.84-.82-2.73-1.29l.23-.44c.88.46,1.79.89,2.7,1.27Zm32-1.83-.25-.44c.86-.48,1.71-1,2.53-1.57l.28.41C326.14,332.47,325.28,333,324.41,333.5Zm-37.37-1c-.85-.54-1.68-1.12-2.48-1.72l.3-.4c.79.6,1.61,1.17,2.44,1.7Zm42.35-2.43-.31-.39c.76-.62,1.52-1.29,2.23-2l.34.36C330.93,328.79,330.17,329.47,329.39,330.1Zm-47.16-1.22c-.74-.67-1.47-1.38-2.15-2.12l.36-.34c.68.72,1.39,1.43,2.13,2.09Zm51.51-3-.37-.33c.65-.75,1.28-1.53,1.86-2.32l.41.3C335,324.37,334.4,325.16,333.74,325.92Zm-55.63-1.44c-.62-.79-1.22-1.61-1.77-2.45l.41-.28c.55.83,1.14,1.64,1.75,2.42Zm59.22-3.42-.43-.26c.52-.84,1-1.71,1.45-2.6l.45.22C338.35,319.32,337.85,320.21,337.33,321.06Zm-62.55-1.62c-.48-.88-.92-1.79-1.33-2.71l.46-.2c.4.9.84,1.8,1.31,2.67ZM340,315.67l-.47-.19c.37-.92.7-1.87,1-2.81l.48.15C340.75,313.77,340.41,314.73,340,315.67Zm-67.67-1.75c-.33-.95-.61-1.93-.85-2.9l.49-.12c.23,1,.51,1.92.83,2.85Zm69.41-4-.49-.1c.21-1,.37-2,.49-2.94l.49.06C342.15,307.9,342,308.91,341.78,309.89Zm-70.85-1.84c-.15-1-.26-2-.33-3l.5,0c.07,1,.18,2,.33,3Zm71.57-4.15H342c0-.41,0-.81,0-1.21,0-.61,0-1.2,0-1.77l.5,0c0,.58,0,1.19,0,1.8C342.52,303.09,342.52,303.5,342.5,303.9ZM271,302h-.5c0-1,.08-2,.18-3l.5.05C271.11,300.05,271.05,301.05,271,302Zm70.67-4.1c-.13-1-.31-2-.53-2.92l.49-.11c.22,1,.4,2,.54,3Zm-70.05-1.81-.5-.1c.19-1,.43-2,.7-2.93l.48.13C272.06,294.18,271.83,295.16,271.65,296.13Zm68.74-4c-.3-.95-.65-1.88-1-2.8l.46-.19c.39.93.74,1.88,1.05,2.83Zm-67.12-1.75-.47-.17c.36-.94.76-1.87,1.2-2.78l.45.22C274,288.56,273.62,289.48,273.27,290.4Zm64.83-3.74c-.46-.88-1-1.74-1.49-2.58l.42-.27c.54.85,1,1.73,1.51,2.62ZM275.85,285l-.43-.25c.52-.86,1.07-1.71,1.65-2.53l.41.29C276.9,283.35,276.36,284.19,275.85,285Zm59-3.4c-.6-.78-1.24-1.55-1.91-2.28l.37-.34c.68.74,1.33,1.53,1.94,2.32Zm-55.59-1.44-.38-.32c.65-.76,1.34-1.51,2.05-2.22l.35.36C280.63,278.71,280,279.45,279.31,280.2Zm51.59-3c-.72-.68-1.48-1.33-2.26-1.94l.31-.39c.79.61,1.56,1.28,2.29,2ZM283.53,276l-.32-.38c.77-.65,1.58-1.27,2.39-1.84l.29.4C285.09,274.76,284.29,275.37,283.53,276Zm42.69-2.45c-.82-.55-1.68-1.06-2.55-1.54l.24-.43c.88.48,1.75,1,2.59,1.55Zm-37.83-1-.25-.43c.87-.51,1.76-1,2.67-1.42l.21.45C290.13,271.61,289.25,272.08,288.39,272.58ZM321,270.71c-.91-.4-1.84-.76-2.78-1.09l.16-.47c.95.33,1.9.7,2.82,1.1Zm-27.24-.7-.18-.47c.94-.35,1.9-.67,2.86-1l.14.48C295.63,269.34,294.68,269.66,293.76,270Zm21.61-1.24c-1-.24-1.94-.44-2.92-.6l.09-.5c1,.17,2,.37,2.95.62Zm-15.89-.4-.1-.49c1-.2,2-.35,3-.47l.06.5C301.43,268,300.44,268.18,299.48,268.37Zm10-.57a35.25,35.25,0,0,0-4.11-.1l0-.5a38.64,38.64,0,0,1,4.17.1Z"/></g><g id="Ellipse_4" data-name="Ellipse 4"><ellipse class="cls-2" cx="306.52" cy="302.68" rx="86" ry="86.5"/><path class="cls-3" d="M306.53,389.18c-.9,0-1.82,0-2.74,0l0-.5c.91,0,1.82,0,2.71,0h.28v.5Zm3.28-.06,0-.5c1,0,2-.1,3-.17l0,.5C311.84,389,310.83,389.08,309.81,389.12Zm-9-.13c-1-.07-2-.15-3-.25l0-.5c1,.1,2,.19,3,.25Zm15-.31-.05-.5c1-.1,2-.23,3-.37l.07.5C317.79,388.45,316.79,388.58,315.8,388.68Zm-21-.3c-1-.13-2-.29-3-.46l.09-.49c1,.17,2,.32,2.95.46Zm26.95-.55-.09-.5c1-.17,2-.37,2.93-.58l.11.49C323.73,387.45,322.74,387.65,321.76,387.83Zm-32.88-.47c-1-.21-2-.44-2.93-.67l.12-.49c1,.24,1.94.46,2.91.67Zm38.76-.81-.13-.48c1-.24,1.93-.51,2.89-.79l.14.48C329.58,386,328.6,386.31,327.64,386.55Zm-44.6-.64c-1-.27-1.93-.56-2.88-.87l.16-.48c.94.31,1.9.6,2.86.87Zm50.37-1-.16-.48c.94-.31,1.89-.64,2.83-1l.17.47C335.3,384.22,334.35,384.56,333.41,384.87Zm-56.1-.81c-.94-.34-1.89-.71-2.82-1.08l.19-.47c.93.38,1.87.74,2.8,1.08ZM339,382.78l-.19-.46c.92-.38,1.84-.77,2.74-1.18l.21.45C340.89,382,340,382.4,339,382.78Zm-67.32-1c-.92-.41-1.84-.84-2.73-1.27l.22-.45c.89.43,1.8.86,2.71,1.26Zm72.79-1.49-.22-.45c.88-.44,1.77-.9,2.65-1.37l.23.44C346.29,379.4,345.4,379.87,344.51,380.31Zm-78.21-1.15c-.88-.48-1.77-1-2.63-1.47l.25-.43c.86.5,1.74,1,2.62,1.45Zm83.49-1.71-.25-.43c.85-.5,1.71-1,2.54-1.56l.27.43C351.51,376.42,350.65,377,349.79,377.45Zm-88.7-1.31c-.84-.53-1.69-1.08-2.52-1.65l.28-.41c.83.56,1.67,1.11,2.51,1.63Zm93.77-1.91-.28-.41c.81-.55,1.63-1.14,2.43-1.73l.3.4C356.5,373.09,355.68,373.68,354.86,374.23Zm-98.75-1.47c-.81-.59-1.62-1.2-2.4-1.81l.3-.4c.78.62,1.59,1.22,2.39,1.81Zm103.59-2.09-.31-.39c.78-.62,1.56-1.26,2.31-1.9l.32.38C361.27,369.4,360.49,370,359.7,370.67Zm-108.33-1.62c-.76-.64-1.53-1.31-2.27-2l.34-.37c.73.67,1.49,1.33,2.25,2Zm112.91-2.28-.34-.37c.73-.66,1.46-1.35,2.18-2l.34.36C365.75,365.41,365,366.1,364.28,366.77ZM246.9,365c-.7-.69-1.42-1.4-2.12-2.13l.36-.35c.7.73,1.41,1.44,2.11,2.12Zm121.68-2.45-.36-.35c.68-.72,1.36-1.46,2-2.2l.37.33Q369.62,361.48,368.58,362.57Zm-125.85-1.88c-.66-.73-1.32-1.5-2-2.27l.38-.32c.65.77,1.31,1.52,2,2.26Zm129.85-2.62-.38-.32c.63-.77,1.26-1.55,1.87-2.33l.39.3C373.86,356.51,373.22,357.3,372.58,358.07Zm-133.71-2c-.61-.78-1.22-1.58-1.81-2.4l.4-.29c.59.81,1.2,1.61,1.8,2.39Zm137.39-2.77-.41-.29c.58-.81,1.16-1.63,1.71-2.46l.42.27C377.42,351.67,376.84,352.5,376.26,353.31Zm-140.92-2.08c-.56-.83-1.11-1.68-1.64-2.52l.42-.27c.53.84,1.07,1.68,1.63,2.51ZM379.6,348.3l-.42-.26c.53-.85,1-1.72,1.53-2.58l.43.25C380.65,346.57,380.13,347.44,379.6,348.3Zm-147.45-2.16c-.5-.87-1-1.75-1.46-2.63l.44-.23c.47.87,1,1.75,1.45,2.61Zm150.44-3.07-.44-.23c.47-.89.92-1.79,1.35-2.68l.45.22C383.52,341.27,383.06,342.17,382.59,343.07Zm-153.27-2.23c-.43-.89-.86-1.81-1.27-2.72l.46-.2c.4.9.83,1.81,1.26,2.7Zm155.89-3.2-.46-.2c.41-.92.79-1.85,1.16-2.77l.47.19C386,335.78,385.62,336.72,385.21,337.64Zm-158.33-2.27c-.38-.93-.74-1.87-1.09-2.81l.47-.17c.34.93.71,1.87,1.08,2.79ZM387.44,332l-.47-.17c.34-.94.66-1.89,1-2.84l.47.15C388.11,330.13,387.78,331.1,387.44,332Zm-162.63-2.32c-.31-1-.61-1.91-.89-2.88l.49-.14c.27,1,.57,1.92.87,2.86Zm164.47-3.42-.48-.14c.26-.94.52-1.92.76-2.89l.48.12C389.8,324.37,389.55,325.35,389.28,326.3Zm-166.14-2.36c-.24-1-.47-1.95-.68-2.93l.49-.11c.21,1,.43,2,.68,2.92Zm167.57-3.48-.49-.11c.2-1,.39-2,.55-2.93l.5.08C391.1,318.48,390.91,319.47,390.71,320.46Zm-168.83-2.4c-.18-1-.34-2-.48-3l.5-.07c.14,1,.3,2,.47,3Zm169.84-3.53-.49-.07c.13-1,.25-2,.35-3l.5.05C392,312.53,391.86,313.54,391.72,314.53ZM221,312.1c-.11-1-.2-2-.27-3l.5,0c.07,1,.16,2,.27,3Zm171.3-3.55-.5,0c.07-1,.12-2,.15-3h.5C392.45,306.53,392.4,307.54,392.33,308.55Zm-171.74-2.44c0-1-.06-2-.06-3h.5c0,1,0,2,.06,3ZM392,302.53c0-1,0-2,0-3h.5c0,1,0,2,0,3Zm-171-2.42-.5,0c0-1,.08-2,.14-3l.5,0C221.14,298.11,221.09,299.12,221.06,300.11Zm170.75-3.55c-.07-1-.16-2-.26-3l.5-.05c.1,1,.19,2,.26,3Zm-170.37-2.42-.5-.05c.1-1,.22-2,.35-3l.49.07C221.65,292.15,221.54,293.15,221.44,294.14Zm169.75-3.53c-.14-1-.3-2-.47-2.95l.5-.09c.17,1,.33,2,.46,3Zm-169-2.4-.49-.08c.16-1,.35-2,.55-3l.49.1C222.58,286.24,222.4,287.23,222.23,288.21Zm167.93-3.49c-.21-1-.43-2-.67-2.91l.48-.12c.24,1,.47,1.95.68,2.93Zm-166.73-2.37-.49-.12c.24-1,.49-2,.76-2.91l.48.14C223.91,280.41,223.66,281.38,223.43,282.35Zm165.29-3.43c-.27-1-.57-1.92-.87-2.86l.47-.16c.31,1,.6,1.92.88,2.88ZM225,276.59l-.48-.15c.3-.95.63-1.91,1-2.86l.47.17C225.65,274.69,225.33,275.64,225,276.59Zm161.85-3.36c-.34-.93-.7-1.87-1.07-2.8l.46-.18c.38.93.74,1.87,1.08,2.81ZM227,270.94l-.47-.19c.37-.92.76-1.86,1.16-2.78l.46.2C227.79,269.09,227.4,270,227,270.94Zm157.61-3.25c-.4-.91-.83-1.82-1.26-2.71l.45-.22c.44.9.86,1.81,1.27,2.72Zm-155.22-2.25-.45-.21c.43-.9.88-1.81,1.35-2.7l.44.23C230.31,263.65,229.86,264.55,229.43,265.44ZM382,262.32c-.46-.87-.94-1.75-1.44-2.61l.44-.25c.49.87,1,1.75,1.45,2.63Zm-149.83-2.19-.44-.25c.49-.86,1-1.73,1.53-2.59l.43.26C233.2,258.41,232.69,259.27,232.21,260.13Zm146.86-3c-.52-.84-1.06-1.68-1.62-2.51l.42-.28c.56.83,1.1,1.68,1.63,2.52ZM235.34,255l-.42-.28c.56-.84,1.13-1.67,1.71-2.48l.41.29C236.46,253.37,235.89,254.19,235.34,255Zm140.41-2.84c-.59-.81-1.19-1.61-1.79-2.39l.39-.31c.61.78,1.22,1.59,1.8,2.4Zm-136.93-2-.4-.31c.61-.79,1.24-1.58,1.88-2.35l.38.31C240.05,248.58,239.42,249.37,238.82,250.16Zm133.26-2.69c-.63-.76-1.29-1.52-1.95-2.26l.37-.34c.67.75,1.33,1.52,2,2.28Zm-129.46-1.93-.37-.33c.66-.75,1.34-1.5,2-2.22l.36.34C244,244.05,243.28,244.8,242.62,245.54ZM368.1,243c-.7-.72-1.4-1.44-2.11-2.12l.35-.36c.71.69,1.42,1.41,2.12,2.14ZM246.74,241.2l-.35-.36c.71-.7,1.45-1.4,2.18-2.07l.34.37C248.18,239.81,247.45,240.5,246.74,241.2Zm117.08-2.36c-.74-.67-1.5-1.33-2.25-2l.32-.38c.76.64,1.52,1.31,2.26,2Zm-112.67-1.68-.33-.38c.76-.65,1.54-1.3,2.32-1.92l.31.39C252.67,235.87,251.9,236.51,251.15,237.16ZM359.25,235c-.78-.61-1.58-1.22-2.38-1.81l.3-.4c.8.59,1.6,1.2,2.39,1.82Zm-103.43-1.54-.3-.4c.8-.59,1.62-1.18,2.44-1.75l.29.41C257.43,232.26,256.61,232.84,255.82,233.43Zm98.61-2c-.83-.56-1.67-1.11-2.51-1.64l.27-.42c.84.53,1.69,1.09,2.52,1.65ZM260.74,230l-.27-.42c.84-.54,1.7-1.07,2.55-1.58l.26.44C262.43,229,261.57,229.5,260.74,230Zm88.63-1.8c-.86-.5-1.74-1-2.62-1.47l.24-.44c.89.48,1.77,1,2.63,1.48ZM265.88,227l-.24-.44c.87-.47,1.76-.94,2.66-1.39l.22.45C267.63,226.06,266.74,226.53,265.88,227Zm78.21-1.6c-.89-.44-1.8-.87-2.71-1.27l.2-.46c.92.41,1.84.84,2.73,1.28Zm-72.88-1.07-.2-.45c.9-.42,1.83-.82,2.75-1.2l.19.46C273,223.52,272.12,223.92,271.21,224.33Zm67.41-1.39c-.92-.37-1.86-.73-2.79-1.08l.17-.47c.94.35,1.89.71,2.81,1.09Zm-61.9-.89-.18-.47c.94-.35,1.9-.69,2.84-1l.16.47C278.6,221.36,277.65,221.7,276.72,222.05ZM333,220.88c-.94-.31-1.91-.6-2.86-.88l.14-.48c1,.28,1.93.58,2.87.88Zm-50.61-.73-.14-.48c.95-.28,1.93-.55,2.9-.8l.12.49C284.31,219.61,283.34,219.87,282.39,220.15Zm44.86-.93c-1-.24-1.94-.47-2.91-.67l.1-.49c1,.21,2,.44,2.93.68Zm-39.07-.56-.11-.48c1-.22,2-.42,2.95-.6l.09.49C290.13,218.25,289.14,218.45,288.18,218.66ZM321.4,218c-1-.18-2-.33-2.95-.47l.07-.5c1,.14,2,.3,3,.47Zm-27.34-.39-.07-.5c1-.14,2-.27,3-.38l.06.49C296,217.31,295,217.44,294.06,217.59Zm21.42-.45c-1-.1-2-.19-3-.25l0-.5c1,.07,2,.15,3,.26ZM300,216.93l0-.5c1-.08,2-.14,3-.18l0,.5C302,216.79,301,216.85,300,216.93Zm9.51-.2c-1,0-2,0-3,0H306v-.5h.54c1,0,2,0,3,0Z"/></g><g id="Ellipse_6" data-name="Ellipse 6"><ellipse class="cls-2" cx="306.52" cy="302.68" rx="146" ry="146.5"/><path class="cls-3" d="M306.52,449.18h-.19v-.5h.19c.94,0,1.87,0,2.8,0v.5C308.4,449.17,307.46,449.18,306.52,449.18Zm-3.2,0-3-.09,0-.5c1,0,2,.07,3,.09Zm9-.07,0-.5c1,0,2-.09,3-.15l0,.5Zm-15-.18c-1-.06-2-.13-3-.22l0-.49c1,.08,2,.15,3,.21Zm21-.18,0-.5c1-.08,2-.17,3-.27l.05.5C320.32,448.54,319.33,448.63,318.33,448.71Zm-27-.31c-1-.11-2-.22-3-.35l.07-.49,3,.34Zm33-.3-.06-.49c1-.12,2-.25,3-.4l.07.5Q325.8,447.92,324.31,448.1Zm-38.94-.45c-1-.14-2-.3-3-.46l.08-.5c1,.17,2,.32,3,.47Zm44.88-.4-.08-.49c1-.16,2-.33,2.95-.51l.09.49C332.23,446.92,331.24,447.09,330.25,447.25Zm-50.81-.59c-1-.18-2-.38-2.95-.58l.11-.49c1,.2,1.95.4,2.93.58Zm56.72-.5-.1-.49c1-.2,1.95-.42,2.93-.64l.11.49C338.12,445.74,337.14,446,336.16,446.16Zm-62.6-.73c-1-.23-1.95-.46-2.92-.71l.12-.48c1,.24,1.94.48,2.91.7Zm68.46-.61-.12-.49c1-.24,1.93-.49,2.89-.75l.14.48C344,444.32,343,444.58,342,444.82ZM267.74,444c-1-.27-1.93-.54-2.89-.83l.14-.48c1,.29,1.92.56,2.88.83Zm80.08-.71-.15-.48c1-.28,1.92-.58,2.87-.88l.15.48Zm-85.85-1c-1-.31-1.92-.62-2.87-1l.17-.47c.94.32,1.89.64,2.85.94Zm91.57-.81-.16-.48q1.42-.48,2.82-1l.18.47Zm-97.28-1.15-2.81-1.07.18-.47c.93.37,1.87.72,2.81,1.07Zm102.93-.91-.18-.47c.92-.36,1.85-.73,2.77-1.11l.19.47C361,438.63,360.12,439,359.19,439.36Zm-108.54-1.29c-.93-.39-1.85-.78-2.77-1.19l.2-.46c.92.41,1.84.8,2.76,1.19Zm114.07-1-.2-.46,2.73-1.22.2.45Q366.1,436.48,364.72,437.08Zm-119.58-1.44-2.72-1.3.22-.45,2.71,1.3Zm125-1.07-.22-.45c.9-.44,1.79-.88,2.67-1.34l.23.45ZM239.73,433c-.89-.46-1.77-.93-2.66-1.41l.24-.44c.88.48,1.76.95,2.65,1.41Zm135.76-1.15-.23-.44c.87-.47,1.75-.95,2.61-1.44l.25.44C377.25,430.88,376.38,431.36,375.49,431.83Zm-141-1.72c-.87-.5-1.73-1-2.59-1.52l.25-.43c.86.51,1.72,1,2.59,1.51Zm146.27-1.23-.25-.43c.85-.5,1.71-1,2.55-1.55l.27.43ZM229.28,427c-.85-.53-1.69-1.08-2.53-1.63L227,425c.84.54,1.68,1.08,2.53,1.61Zm156.53-1.3-.28-.42c.84-.55,1.67-1.1,2.49-1.66l.28.42C387.48,424.62,386.65,425.17,385.81,425.72Zm-161.56-2c-.83-.57-1.65-1.14-2.46-1.73l.29-.4c.81.58,1.63,1.15,2.45,1.72Zm166.52-1.38-.29-.4,2.42-1.76.3.4C392.39,421.18,391.58,421.77,390.77,422.34Zm-171.41-2.12c-.8-.6-1.6-1.21-2.39-1.83l.31-.39c.79.61,1.58,1.22,2.38,1.82Zm176.23-1.45-.31-.39c.79-.62,1.58-1.23,2.35-1.86l.32.39C397.17,417.54,396.38,418.16,395.59,418.77Zm-181-2.25-2.31-1.92.32-.38c.77.64,1.53,1.28,2.31,1.91ZM400.26,415l-.32-.38c.76-.64,1.52-1.29,2.27-1.95l.33.37C401.79,413.7,401,414.36,400.26,415ZM210,412.63c-.75-.66-1.5-1.34-2.23-2l.34-.37c.73.68,1.47,1.34,2.22,2ZM404.78,411l-.34-.37q1.11-1,2.19-2l.35.36C406.25,409.68,405.52,410.37,404.78,411Zm-199.16-2.48c-.72-.69-1.44-1.4-2.15-2.1l.36-.36c.7.71,1.42,1.41,2.14,2.1Zm203.51-1.66-.35-.35q1.07-1.07,2.1-2.13l.36.34C410.55,405.48,409.84,406.2,409.13,406.9Zm-207.76-2.59c-.69-.72-1.38-1.45-2.06-2.19l.37-.33c.68.73,1.36,1.46,2,2.17Zm211.94-1.73-.37-.34c.68-.73,1.36-1.47,2-2.21l.37.33C414.67,401.11,414,401.85,413.31,402.58Zm-216-2.68c-.66-.75-1.32-1.51-2-2.27l.39-.33c.64.76,1.3,1.52,2,2.26Zm220-1.8-.38-.33c.65-.75,1.29-1.52,1.93-2.29l.38.31C418.61,396.57,418,397.34,417.31,398.1Zm-223.89-2.78c-.64-.78-1.26-1.56-1.88-2.35l.4-.31q.92,1.18,1.86,2.34Zm227.71-1.87-.39-.31q.92-1.17,1.83-2.37l.39.3C422.36,391.87,421.75,392.67,421.13,393.45Zm-231.41-2.86c-.6-.8-1.19-1.61-1.77-2.42l.4-.29c.59.81,1.17,1.61,1.77,2.41Zm235-1.94-.4-.29c.58-.81,1.16-1.63,1.73-2.45l.41.29C425.92,387,425.34,387.84,424.75,388.65Zm-238.53-2.94c-.56-.82-1.12-1.65-1.67-2.49L185,383c.55.83,1.1,1.66,1.67,2.48Zm242-2-.42-.28c.55-.83,1.1-1.67,1.63-2.51l.43.26C429.28,382,428.73,382.87,428.18,383.71Zm-245.25-3c-.53-.85-1.05-1.7-1.57-2.55l.43-.26c.51.85,1,1.7,1.56,2.54Zm248.47-2.07-.43-.26c.52-.86,1-1.72,1.53-2.59l.43.25C432.43,376.9,431.92,377.77,431.4,378.63Zm-251.55-3.07q-.75-1.31-1.47-2.61l.44-.24c.48.87,1,1.74,1.46,2.6Zm254.56-2.15-.44-.24c.49-.88,1-1.76,1.42-2.64l.45.23C435.37,371.65,434.89,372.53,434.41,373.41ZM177,370.3q-.69-1.33-1.35-2.67l.45-.22c.44.89.89,1.78,1.35,2.66Zm260.24-2.22-.45-.23c.44-.89.88-1.79,1.31-2.7l.45.22C438.09,366.28,437.65,367.18,437.21,368.08Zm-262.89-3.15c-.42-.9-.84-1.81-1.24-2.73l.46-.2c.4.91.81,1.82,1.24,2.72Zm265.46-2.3-.46-.21c.41-.91.81-1.83,1.2-2.75l.46.2Q440.4,361.25,439.78,362.63Zm-267.89-3.17c-.38-.93-.76-1.85-1.13-2.79l.47-.18c.36.93.74,1.85,1.12,2.77Zm270.24-2.38-.47-.19c.37-.93.73-1.86,1.09-2.8l.46.18C442.86,355.21,442.5,356.15,442.13,357.08Zm-272.45-3.21c-.34-.94-.68-1.88-1-2.83l.47-.16c.33.94.67,1.88,1,2.81Zm274.57-2.44-.48-.16c.33-.95.66-1.89,1-2.85l.47.16Q444.75,350,444.25,351.43Zm-276.54-3.24c-.31-.95-.61-1.9-.9-2.86l.48-.15c.29,1,.59,1.91.89,2.86Zm278.41-2.47-.48-.15c.3-.95.58-1.91.85-2.87l.48.13C446.7,343.8,446.42,344.76,446.12,345.72ZM166,342.44c-.27-1-.53-1.93-.78-2.9l.48-.12c.25,1,.51,1.93.78,2.89Zm281.79-2.51-.48-.12c.25-1,.49-1.93.72-2.91l.49.12C448.26,338,448,339,447.76,339.93Zm-283.3-3.31c-.23-1-.45-1.95-.66-2.93l.49-.1c.21,1,.43,2,.66,2.92Zm284.7-2.53-.49-.11c.21-1,.42-2,.61-2.93l.49.1C449.58,332.13,449.37,333.11,449.16,334.09Zm-286-3.34c-.19-1-.37-2-.54-3l.49-.08c.17,1,.35,2,.54,2.94Zm287.12-2.56-.49-.08c.17-1,.33-2,.48-3l.5.08C450.65,326.22,450.49,327.21,450.32,328.19Zm-288.14-3.36c-.15-1-.29-2-.42-3l.5-.06c.13,1,.27,2,.42,3Zm289.05-2.58-.49-.06q.19-1.49.36-3l.5,0C451.49,320.27,451.36,321.26,451.23,322.25Zm-289.82-3.38c-.11-1-.21-2-.3-3l.5-.05c.09,1,.18,2,.29,3Zm290.49-2.59-.5,0c.1-1,.18-2,.25-3l.5,0C452.08,314.29,452,315.29,451.9,316.28Zm-291-3.4c-.06-1-.12-2-.17-3l.5,0c.05,1,.1,2,.17,3Zm291.46-2.59-.5,0q.07-1.5.12-3l.5,0Q452.41,308.79,452.33,310.29Zm-291.75-3.41c0-1,0-2-.05-3h.5c0,1,0,2,.05,3Zm291.94-2.59H452v-3h.5v3ZM161,300.88h-.5c0-1,0-2,.06-3l.5,0C161.07,298.88,161.05,299.88,161,300.88ZM452,298.29c0-1-.07-2-.12-3l.5,0q.07,1.49.12,3ZM161.23,294.9l-.5,0c.05-1,.11-2,.19-3l.5,0C161.34,292.9,161.28,293.9,161.23,294.9Zm290.44-2.59c-.08-1-.16-2-.25-3l.5-.05q.13,1.5.24,3Zm-290-3.39-.5,0c.1-1,.2-2,.31-3l.5.06C161.86,286.94,161.75,287.93,161.66,288.92Zm289.47-2.57c-.12-1-.24-2-.37-3l.5-.07c.13,1,.25,2,.36,3ZM162.34,283l-.5-.06c.14-1,.28-2,.43-3l.5.08C162.62,281,162.47,282,162.34,283Zm288-2.56c-.15-1-.31-2-.48-3l.49-.09c.18,1,.34,2,.49,3Zm-287.08-3.35-.49-.09c.17-1,.35-2,.55-3l.49.09C163.62,275.09,163.43,276.07,163.26,277.06Zm286.06-2.55c-.19-1-.39-2-.6-2.93l.48-.11c.22,1,.42,2,.61,2.95Zm-284.9-3.33-.49-.1c.22-1,.44-2,.67-2.93l.49.11C164.86,269.23,164.63,270.21,164.42,271.18Zm283.63-2.52q-.35-1.46-.72-2.91l.49-.12c.25,1,.49,1.94.72,2.91Zm-282.23-3.3-.48-.13c.25-1,.52-1.93.79-2.89l.48.13C166.34,263.43,166.08,264.39,165.82,265.36Zm280.73-2.5c-.27-1-.55-1.92-.84-2.87l.47-.15c.3,1,.58,1.92.85,2.89ZM167.46,259.6l-.48-.15c.3-1,.6-1.92.92-2.87l.47.16C168.06,257.69,167.76,258.64,167.46,259.6Zm277.34-2.47c-.31-.95-.63-1.89-1-2.83l.48-.17c.33,1,.65,1.89,1,2.85Zm-275.45-3.24-.47-.16c.33-.95.67-1.9,1-2.84l.47.18C170,252,169.68,253,169.35,253.89Zm273.48-2.41q-.52-1.41-1.08-2.79l.47-.19,1.08,2.81Zm-271.37-3.21-.46-.19c.37-.93.76-1.86,1.15-2.78l.46.19C172.22,246.41,171.84,247.34,171.46,248.27Zm269.16-2.35c-.39-.92-.78-1.84-1.19-2.74l.46-.21c.41.91.8,1.83,1.19,2.75Zm-266.81-3.18-.45-.2c.41-.92.83-1.83,1.26-2.74l.45.22C174.64,240.92,174.22,241.83,173.81,242.74Zm264.38-2.28c-.42-.9-.86-1.79-1.3-2.68l.45-.23c.44.9.88,1.8,1.3,2.7Zm-261.81-3.14-.44-.23c.45-.9.9-1.79,1.37-2.68l.44.24C177.29,235.53,176.83,236.42,176.38,237.32Zm259.16-2.21c-.46-.88-.93-1.76-1.41-2.63l.44-.24q.72,1.32,1.41,2.64ZM179.18,232l-.44-.25c.49-.88,1-1.75,1.48-2.62l.43.25C180.15,230.26,179.66,231.13,179.18,232Zm253.49-2.13c-.49-.87-1-1.73-1.51-2.58l.43-.26c.51.86,1,1.72,1.52,2.59Zm-250.48-3.07-.43-.26c.52-.85,1.05-1.71,1.59-2.55l.42.27C183.23,225.11,182.7,226,182.19,226.81Zm247.4-2.05c-.53-.85-1.07-1.68-1.62-2.52l.42-.27q.83,1.25,1.62,2.52Zm-244.19-3-.41-.27c.55-.84,1.12-1.67,1.69-2.49l.41.28C186.52,220.09,186,220.92,185.4,221.75Zm240.9-2c-.56-.83-1.14-1.64-1.72-2.45L425,217c.58.81,1.16,1.63,1.72,2.45Zm-237.48-2.94-.4-.29c.59-.82,1.19-1.62,1.79-2.42l.4.3C190,215.22,189.41,216,188.82,216.83Zm234-1.92c-.6-.8-1.21-1.59-1.82-2.37l.39-.31c.62.79,1.23,1.58,1.83,2.38Zm-230.37-2.86-.39-.31c.62-.78,1.25-1.57,1.89-2.34l.38.32C193.69,210.49,193.06,211.27,192.44,212.05Zm226.68-1.85c-.63-.77-1.27-1.54-1.91-2.29l.38-.33c.64.76,1.29,1.53,1.92,2.31Zm-222.87-2.77-.38-.33,2-2.26.38.33C197.56,205.92,196.9,206.67,196.25,207.43Zm219-1.78c-.66-.75-1.33-1.49-2-2.22l.36-.34c.68.73,1.35,1.48,2,2.22Zm-215-2.69-.37-.34c.68-.73,1.37-1.46,2.07-2.18l.36.35C201.62,201.51,200.93,202.23,200.25,203Zm210.93-1.71q-1-1.08-2.1-2.13l.36-.36c.71.71,1.41,1.42,2.1,2.14Zm-206.76-2.58-.35-.36c.71-.7,1.43-1.4,2.16-2.09l.34.36ZM406.94,197c-.72-.69-1.45-1.37-2.18-2l.34-.37c.73.67,1.46,1.36,2.19,2Zm-198.18-2.47-.34-.37c.75-.68,1.49-1.35,2.25-2l.32.37C210.24,193.21,209.5,193.87,208.76,194.55ZM402.53,193l-2.26-2,.32-.38,2.27,2Zm-189.26-2.36-.32-.39c.76-.64,1.54-1.28,2.32-1.9l.31.39C214.8,189.33,214,190,213.27,190.61ZM398,189.1c-.78-.63-1.56-1.25-2.35-1.86l.31-.4c.79.62,1.58,1.24,2.35,1.88Zm-180-2.24-.31-.4c.8-.61,1.59-1.21,2.4-1.81l.3.4C219.51,185.65,218.72,186.25,217.93,186.86Zm175.3-1.44-2.42-1.76.29-.41q1.23.87,2.43,1.77ZM222.74,183.3l-.29-.41c.82-.58,1.64-1.14,2.47-1.71l.28.42C224.37,182.16,223.55,182.72,222.74,183.3Zm165.61-1.36c-.82-.56-1.65-1.12-2.49-1.67l.27-.42c.84.55,1.68,1.11,2.5,1.68Zm-160.66-2-.27-.42c.84-.55,1.68-1.08,2.53-1.61l.26.43C229.37,178.87,228.53,179.41,227.69,180Zm155.64-1.29c-.84-.53-1.7-1-2.55-1.56l.25-.43c.86.51,1.72,1,2.57,1.56ZM232.77,176.8l-.25-.43c.86-.51,1.72-1,2.59-1.5l.25.44C234.49,175.79,233.63,176.29,232.77,176.8Zm145.42-1.21c-.87-.5-1.75-1-2.63-1.46l.24-.44c.88.48,1.76,1,2.63,1.46ZM238,173.87l-.24-.44c.88-.48,1.76-.94,2.65-1.4l.23.45C239.73,172.93,238.85,173.4,238,173.87Zm134.93-1.14c-.89-.46-1.78-.91-2.68-1.35l.22-.45c.9.44,1.8.89,2.69,1.35Zm-129.62-1.58-.21-.45c.89-.44,1.8-.86,2.7-1.28l.21.45Zm124.23-1.06-2.74-1.24.21-.45c.92.4,1.83.81,2.74,1.24Zm-118.8-1.43-.2-.46q1.36-.6,2.76-1.17l.18.47C250.54,167.87,249.63,168.26,248.72,168.66Zm113.3-1c-.92-.39-1.85-.76-2.78-1.13l.18-.46c.94.36,1.87.74,2.79,1.12Zm-107.78-1.29-.18-.47c.93-.36,1.87-.71,2.81-1l.17.47C256.1,165.68,255.17,166,254.24,166.39Zm102.19-.9c-.94-.34-1.89-.68-2.84-1l.17-.47c.95.32,1.9.66,2.84,1Zm-96.57-1.14-.16-.47c.95-.33,1.9-.64,2.86-.94l.15.48Zm90.88-.81c-.95-.3-1.91-.6-2.87-.88l.14-.48c1,.28,1.93.58,2.88.89Zm-85.17-1-.14-.48c1-.28,1.93-.55,2.89-.81l.14.48C267.49,162,266.53,162.26,265.57,162.54Zm79.42-.7c-1-.27-1.93-.52-2.9-.77l.13-.48c1,.24,1.94.5,2.9.76ZM271.35,161l-.12-.48c1-.24,1.95-.48,2.92-.7l.12.49C273.29,160.5,272.32,160.73,271.35,161Zm67.83-.6c-1-.22-1.94-.44-2.92-.64l.1-.49c1,.2,2,.42,2.93.64Zm-62-.72-.1-.49,3-.58.09.5Q278.66,159.35,277.19,159.65Zm56.13-.5c-1-.18-2-.36-2.95-.52l.08-.49c1,.16,2,.34,3,.52Zm-50.24-.59-.08-.49q1.49-.24,3-.45l.07.49C285.05,158.25,284.07,158.4,283.08,158.56Zm44.33-.39c-1-.14-2-.27-3-.39l.06-.5c1,.12,2,.26,3,.4Zm-38.4-.44-.06-.5c1-.12,2-.23,3-.33l.05.5C291,157.5,290,157.61,289,157.73Zm32.46-.29c-1-.1-2-.19-3-.27l0-.5c1,.08,2,.17,3,.27Zm-26.5-.31,0-.5,3-.2,0,.5C297,157,296,157.05,295,157.13ZM315.5,157c-1-.06-2-.11-3-.15l0-.5q1.5.06,3,.15ZM301,156.78l0-.5,3-.08v.5Zm8.57-.07c-1,0-2,0-3,0v-.5c1,0,2,0,3,0Z"/></g><g id="Ellipse_8" data-name="Ellipse 8"><circle class="cls-2" cx="306.02" cy="302.68" r="209.5"/><path class="cls-3" d="M306.57,512.18v-.5l3,0v.5Zm-3,0-3,0v-.5l3,.05Zm9-.08v-.5l3-.11,0,.5Zm-15-.07-3-.14,0-.5,3,.14Zm21-.2,0-.5c1-.06,2-.12,3-.2l0,.5Zm-27-.12-3-.23,0-.5,3,.23Zm33-.32,0-.5c1-.08,2-.18,3-.28l.05.5Zm-39-.18c-1-.09-2-.2-3-.31l.05-.49,3,.31Zm44.95-.43-.06-.49,3-.37.06.49C332.52,510.52,331.53,510.65,330.53,510.76Zm-50.92-.23-3-.4.07-.49q1.49.21,3,.39Zm56.88-.55-.08-.49,3-.46.08.5C338.47,509.68,337.48,509.84,336.49,510Zm-62.83-.29q-1.49-.22-3-.48l.09-.49c1,.17,2,.33,3,.48Zm68.76-.66-.09-.49,2.95-.54.09.49C344.39,508.68,343.4,508.86,342.42,509Zm-74.68-.34c-1-.18-2-.37-2.95-.57l.1-.49c1,.2,1.95.38,2.94.57Zm80.58-.78-.1-.49,2.93-.62.1.48C350.28,507.5,349.3,507.71,348.32,507.91Zm-86.47-.4-2.93-.65.11-.49c1,.23,2,.44,2.92.65Zm92.33-.89-.11-.49c1-.23,1.94-.46,2.91-.71l.12.49ZM256,506.17l-2.91-.74.13-.48,2.9.73Zm104-1-.13-.49c1-.25,1.93-.52,2.89-.79l.13.48C361.94,504.64,361,504.9,360,505.16Zm-109.83-.51c-1-.26-1.93-.54-2.89-.82l.14-.48c1,.28,1.92.56,2.88.82Zm115.61-1.12-.14-.48c1-.28,1.91-.58,2.86-.87l.15.47C367.71,503,366.75,503.25,365.79,503.53ZM244.42,503q-1.46-.44-2.88-.9l.15-.48,2.87.91Zm127.1-1.23-.15-.48c.95-.31,1.89-.63,2.83-1l.17.48Zm-132.84-.62q-1.44-.48-2.85-1l.17-.47,2.84,1Zm138.52-1.34-.17-.47,2.81-1,.18.47ZM233,499.1c-.95-.35-1.89-.71-2.82-1.07l.18-.47,2.81,1.07Zm149.82-1.44-.18-.47,2.78-1.12.19.47Zm-155.44-.74-2.79-1.16.2-.46c.92.39,1.85.78,2.78,1.15Zm161-1.54-.19-.46,2.73-1.19.21.45C390.2,494.59,389.28,495,388.36,495.38Zm-166.53-.81c-.92-.4-1.84-.81-2.75-1.23l.21-.45,2.74,1.23Zm172-1.62-.21-.46,2.7-1.27.22.45Zm-177.48-.88-2.71-1.31.22-.45,2.7,1.31Zm182.88-1.71-.23-.45,2.67-1.35.23.44ZM211,489.41c-.9-.46-1.79-.92-2.67-1.39l.23-.44c.88.47,1.77.93,2.66,1.39Zm193.6-1.8-.24-.44c.88-.47,1.76-.94,2.63-1.42l.24.43C406.31,486.67,405.43,487.14,404.55,487.61Zm-198.93-1c-.88-.48-1.75-1-2.62-1.46l.24-.44,2.63,1.46Zm204.17-1.88-.25-.44c.87-.49,1.73-1,2.59-1.5l.25.43Zm-209.4-1.09c-.87-.5-1.73-1-2.59-1.53l.26-.43,2.58,1.53Zm214.56-2-.26-.43c.85-.52,1.7-1,2.54-1.57l.27.42Zm-219.71-1.15c-.85-.53-1.7-1.06-2.54-1.61l.27-.42,2.53,1.61Zm224.78-2-.27-.42,2.5-1.65.27.42Zm-229.84-1.22-2.49-1.68.28-.41,2.49,1.68ZM425,475.14l-.28-.41c.82-.57,1.64-1.14,2.45-1.72l.29.41C426.64,474,425.83,474.57,425,475.14Zm-239.78-1.28c-.81-.57-1.63-1.16-2.44-1.75l.3-.4,2.43,1.75Zm244.67-2.2-.3-.4c.81-.59,1.61-1.19,2.4-1.79l.3.4Zm-249.52-1.34c-.81-.6-1.6-1.2-2.4-1.82l.31-.39c.79.61,1.59,1.21,2.39,1.81ZM434.67,468l-.31-.39c.79-.62,1.57-1.23,2.35-1.86l.31.39C436.24,466.81,435.46,467.43,434.67,468Zm-259.06-1.39-2.34-1.89.32-.39,2.33,1.89Zm263.74-2.36-.32-.39,2.3-1.92.32.38C440.89,463,440.12,463.65,439.35,464.29ZM171,462.84l-2.28-2,.33-.38q1.13,1,2.28,1.95Zm273-2.44-.33-.38c.75-.65,1.5-1.32,2.24-2l.34.37Zm-277.49-1.5-2.23-2,.34-.37,2.22,2Zm282-2.52L448,456l2.18-2,.35.36C449.84,455,449.12,455.7,448.38,456.38ZM162,454.83l-2.17-2.08.35-.36,2.16,2.08Zm290.72-2.59-.35-.36c.71-.7,1.42-1.4,2.12-2.11l.36.35Zm-295-1.6c-.71-.71-1.41-1.43-2.11-2.14l.36-.35c.7.72,1.39,1.43,2.1,2.13ZM457,448l-.36-.34c.7-.72,1.38-1.45,2.07-2.18l.36.35C458.34,446.53,457.65,447.25,457,448Zm-303.42-1.64c-.69-.73-1.37-1.46-2.05-2.2l.37-.34,2,2.19Zm307.53-2.74-.37-.34c.67-.74,1.34-1.48,2-2.23l.37.33C462.4,442.1,461.73,442.85,461.06,443.59ZM149.47,441.9l-2-2.26.38-.32c.66.75,1.31,1.5,2,2.25ZM465,439.09l-.38-.33c.65-.76,1.29-1.52,1.93-2.29l.39.32C466.34,437.56,465.69,438.33,465,439.09Zm-319.49-1.73c-.65-.76-1.28-1.53-1.92-2.31l.39-.32c.63.78,1.27,1.55,1.91,2.31Zm323.33-2.89-.38-.31,1.87-2.34.39.3C470.14,432.91,469.52,433.69,468.88,434.47Zm-327.13-1.76c-.62-.78-1.23-1.57-1.84-2.36l.39-.31c.61.79,1.23,1.58,1.85,2.36Zm330.85-3-.4-.3,1.81-2.4.4.3ZM138.1,428c-.6-.8-1.2-1.61-1.78-2.42l.4-.29c.59.81,1.18,1.61,1.78,2.41Zm338.08-3-.4-.29c.58-.81,1.16-1.63,1.73-2.45l.41.29C477.35,423.29,476.77,424.11,476.18,424.92ZM134.57,423.1c-.57-.81-1.14-1.63-1.7-2.46l.41-.28,1.7,2.46ZM479.62,420l-.41-.28c.56-.83,1.12-1.66,1.66-2.5l.42.28C480.74,418.33,480.19,419.16,479.62,420Zm-348.43-1.84c-.55-.83-1.09-1.67-1.63-2.51l.42-.27c.54.84,1.08,1.68,1.63,2.51ZM482.92,415l-.42-.26q.81-1.27,1.59-2.55l.43.26C484,413.27,483.46,414.12,482.92,415Zm-355-1.85c-.53-.85-1-1.7-1.56-2.56l.42-.26,1.56,2.55Zm358.12-3.27-.43-.26c.51-.85,1-1.72,1.52-2.58l.43.25C487.1,408.12,486.59,409,486.08,409.84ZM124.87,408c-.5-.86-1-1.72-1.49-2.59l.44-.25c.48.87,1,1.73,1.48,2.59Zm364.22-3.34-.44-.25c.49-.87,1-1.75,1.45-2.63l.44.24C490.06,402.87,489.58,403.75,489.09,404.63Zm-367.16-1.88c-.48-.87-1-1.75-1.42-2.63l.45-.24q.69,1.32,1.41,2.64Zm370-3.42-.44-.23c.46-.89.92-1.78,1.37-2.67l.45.22C492.87,397.55,492.41,398.44,491.94,399.33Zm-372.8-1.87c-.45-.89-.9-1.79-1.34-2.68l.45-.22c.44.89.88,1.78,1.33,2.67ZM494.65,394l-.45-.22c.44-.9.87-1.8,1.29-2.71l.45.21C495.52,392.14,495.09,393.05,494.65,394ZM116.5,392.08c-.42-.9-.84-1.81-1.25-2.71l.45-.21c.41.91.83,1.81,1.26,2.71Zm380.7-3.58-.46-.21c.41-.91.82-1.83,1.21-2.75l.46.2C498,386.66,497.61,387.58,497.2,388.5ZM114,386.63c-.4-.91-.8-1.83-1.18-2.74l.46-.2c.38.92.77,1.83,1.17,2.74ZM499.59,383l-.46-.19c.38-.93.76-1.86,1.13-2.79l.46.19C500.35,381.11,500,382,499.59,383ZM111.7,381.12c-.37-.93-.74-1.86-1.1-2.79l.47-.18c.36.93.72,1.86,1.1,2.78Zm390.12-3.75-.47-.18q.54-1.4,1-2.82l.47.18Q502.36,376,501.82,377.37Zm-392.28-1.85c-.35-.94-.69-1.88-1-2.82l.47-.17,1,2.82Zm394.35-3.81-.47-.17c.32-.94.65-1.89,1-2.85l.48.16C504.54,369.81,504.22,370.76,503.89,371.71Zm-396.36-1.85c-.32-.95-.64-1.9-.94-2.85l.47-.16c.31,1,.62,1.9.94,2.85ZM505.79,366l-.48-.15c.31-.95.6-1.91.89-2.87l.48.14C506.39,364.07,506.09,365,505.79,366Zm-400.1-1.84c-.3-.95-.58-1.91-.86-2.88l.48-.13c.28.95.56,1.91.85,2.87Zm401.83-3.92-.48-.14c.28-1,.54-1.92.8-2.88l.49.13C508.07,358.29,507.8,359.26,507.52,360.22ZM104,358.38q-.41-1.45-.78-2.91l.49-.12c.25,1,.51,1.93.77,2.89Zm405.08-4-.49-.12q.38-1.46.72-2.91l.48.11C509.57,352.48,509.33,353.45,509.09,354.42ZM102.5,352.56c-.24-1-.47-1.94-.69-2.92l.49-.11q.33,1.46.69,2.91Zm408-4-.49-.11c.22-1,.43-2,.63-2.93l.5.1C510.91,346.62,510.7,347.6,510.48,348.58Zm-409.32-1.87c-.21-1-.41-2-.61-2.94l.49-.1c.2,1,.4,2,.61,2.93Zm410.55-4-.49-.1q.28-1.47.54-2.94l.5.09C512.08,340.73,511.9,341.72,511.71,342.7ZM100,340.82c-.18-1-.36-2-.52-3l.49-.08c.16,1,.34,2,.52,3Zm412.77-4-.49-.08c.16-1,.31-2,.46-3l.5.07C513.08,334.81,512.92,335.8,512.76,336.79ZM99,334.89c-.16-1-.3-2-.44-3l.49-.07c.14,1,.29,2,.44,3Zm414.66-4.05-.5-.06c.13-1,.26-2,.38-3l.5.06C513.91,328.86,513.78,329.85,513.65,330.84ZM98.16,329c-.13-1-.25-2-.36-3l.5,0c.11,1,.23,2,.35,3Zm416.2-4.07-.5-.05c.11-1,.21-2,.3-3l.5,0C514.56,322.89,514.47,323.89,514.36,324.88ZM97.5,323c-.1-1-.19-2-.27-3l.5-.05c.08,1,.17,2,.26,3Zm417.41-4.08-.5,0c.07-1,.14-2,.2-3l.5,0C515.05,316.9,515,317.9,514.91,318.9ZM97,317q-.11-1.5-.18-3l.49,0,.18,3Zm418.27-4.08-.5,0c.05-1,.09-2,.12-3l.5,0Q515.36,311.41,515.28,312.91ZM96.69,311c0-1-.07-2-.1-3h.5c0,1,.06,2,.1,3Zm418.79-4.09H515c0-1,0-2,0-3h.5C515.51,304.9,515.5,305.9,515.48,306.9ZM96.54,305c0-.77,0-1.55,0-2.32V302H97v.68c0,.77,0,1.54,0,2.31ZM515,300.9c0-1,0-2,0-3h.5c0,1,0,2,0,3Zm-418-1.9h-.5c0-1,0-2,.07-3l.5,0C97.1,297,97.07,298,97.06,299Zm417.82-4.08c0-1-.08-2-.13-3l.5,0c0,1,.1,2,.13,3ZM97.24,293l-.49,0q.06-1.5.15-3l.5,0C97.34,291,97.29,292,97.24,293Zm417.34-4.07c-.06-1-.14-2-.21-3l.49,0c.08,1,.15,2,.22,3ZM97.6,287l-.5,0c.08-1,.16-2,.25-3l.49.05ZM514.11,283l-.3-3,.49-.05c.11,1,.21,2,.31,3Zm-416-1.9-.5-.05c.1-1,.21-2,.33-3l.5.06Q98.28,279.58,98.13,281.06ZM513.46,277c-.12-1-.25-2-.38-3l.49-.07c.14,1,.27,2,.39,3Zm-414.63-1.9-.5-.06c.13-1,.27-2,.41-3l.5.08C99.09,273.13,99,274.12,98.83,275.11Zm413.82-4c-.15-1-.31-2-.47-3l.49-.08c.17,1,.32,2,.47,3Zm-413-1.89-.49-.08c.16-1,.33-2,.5-3l.49.09C100,267.21,99.85,268.2,99.69,269.18Zm412-4c-.18-1-.37-2-.56-2.94l.49-.1c.19,1,.38,2,.56,2.95Zm-410.94-1.88-.49-.09c.19-1,.38-2,.58-2.95l.49.1C101.11,261.32,100.92,262.3,100.73,263.28Zm409.78-4c-.2-1-.42-1.95-.64-2.93l.49-.11c.22,1,.43,2,.64,2.94Zm-408.57-1.87-.49-.1c.22-1,.44-2,.67-2.93l.49.11C102.38,255.46,102.16,256.44,101.94,257.41Zm407.25-4c-.23-1-.48-1.95-.72-2.91l.48-.13c.25,1,.49,1.94.73,2.92Zm-405.87-1.86-.49-.12.75-2.91.49.13C103.81,249.65,103.56,250.61,103.32,251.58Zm404.38-4q-.39-1.44-.81-2.88l.48-.14c.28,1,.55,1.92.81,2.89Zm-402.84-1.84-.48-.13c.27-1,.55-1.93.84-2.89l.47.15C105.41,243.87,105.13,244.83,104.86,245.79ZM506,241.87c-.29-1-.58-1.91-.89-2.86l.48-.15c.3.95.6,1.91.89,2.87Zm-399.47-1.82-.48-.15c.3-1,.61-1.92.93-2.87l.47.16C107.18,238.14,106.87,239.09,106.57,240.05Zm397.65-3.88c-.32-.95-.64-1.9-1-2.84l.47-.16c.33.94.65,1.89,1,2.84Zm-395.77-1.83-.47-.17c.33-.95.67-1.89,1-2.84l.47.17C109.12,232.44,108.78,233.39,108.45,234.34Zm393.78-3.83c-.34-.93-.69-1.87-1.05-2.8l.46-.18c.36.93.71,1.87,1.06,2.81ZM110.5,228.68l-.47-.17c.36-.95.72-1.88,1.09-2.82l.47.19C111.22,226.81,110.86,227.74,110.5,228.68Zm389.58-3.76c-.37-.92-.75-1.84-1.13-2.76l.46-.19c.39.92.76,1.84,1.14,2.76Zm-387.37-1.83-.46-.19c.38-.93.77-1.85,1.17-2.78l.46.2C113.48,221.24,113.09,222.16,112.71,223.09Zm385.07-3.67c-.4-.92-.8-1.83-1.21-2.73l.46-.21c.41.91.81,1.82,1.21,2.73Zm-382.7-1.85-.45-.21c.41-.91.82-1.83,1.24-2.74l.46.21C115.91,215.74,115.49,216.65,115.08,217.57ZM495.32,214c-.42-.91-.85-1.8-1.29-2.7l.45-.22c.44.9.87,1.8,1.3,2.7Zm-377.71-1.86-.45-.22c.44-.9.88-1.8,1.33-2.7l.44.22C118.49,210.32,118,211.22,117.61,212.12Zm375.1-3.51c-.45-.89-.91-1.78-1.37-2.66l.45-.23c.46.88.91,1.77,1.36,2.66Zm-372.42-1.87-.44-.22c.46-.9.93-1.78,1.4-2.67l.44.24Zm369.65-3.43c-.48-.87-1-1.75-1.44-2.61l.43-.25c.49.87,1,1.75,1.45,2.63Zm-366.81-1.86-.44-.24c.49-.88,1-1.75,1.48-2.62l.44.25C124.11,199.71,123.62,200.58,123.13,201.45ZM487,198.1c-.5-.86-1-1.72-1.52-2.58l.43-.25c.51.85,1,1.71,1.52,2.58Zm-360.9-1.85-.43-.26c.51-.86,1-1.72,1.55-2.58l.43.26C127.14,194.53,126.63,195.38,126.12,196.25ZM484,193l-1.59-2.53.42-.27c.54.84,1.07,1.69,1.59,2.54Zm-354.7-1.84-.42-.27c.54-.85,1.08-1.69,1.63-2.53l.41.27Zm351.48-3.2c-.54-.83-1.1-1.66-1.66-2.49l.42-.28c.56.83,1.11,1.66,1.66,2.49Zm-348.2-1.83-.41-.28c.56-.83,1.12-1.66,1.69-2.48l.41.29C133.65,184.45,133.09,185.27,132.53,186.1ZM477.38,183c-.58-.82-1.15-1.63-1.74-2.44l.41-.29,1.74,2.44ZM136,181.17l-.4-.29,1.76-2.43.41.3C137.12,179.55,136.53,180.36,136,181.17Zm337.93-3c-.6-.8-1.2-1.6-1.81-2.39l.4-.3c.61.79,1.21,1.59,1.81,2.39Zm-334.37-1.78-.4-.3c.61-.8,1.22-1.6,1.84-2.38l.39.3Zm330.73-3c-.62-.79-1.24-1.57-1.87-2.34l.39-.31c.63.77,1.25,1.55,1.87,2.34Zm-327-1.75-.39-.32c.63-.78,1.26-1.55,1.9-2.32l.39.32C144.47,170.08,143.83,170.85,143.21,171.63Zm323.25-2.9c-.64-.77-1.28-1.53-1.93-2.28l.38-.33c.65.76,1.3,1.52,1.94,2.29ZM147,167l-.38-.32c.65-.76,1.3-1.52,2-2.27l.38.33C148.34,165.5,147.68,166.25,147,167Zm315.52-2.82c-.66-.75-1.33-1.49-2-2.23l.37-.33c.67.74,1.34,1.48,2,2.23ZM151,162.51l-.37-.33c.67-.75,1.35-1.48,2-2.22l.37.34C152.34,161,151.66,161.77,151,162.51Zm307.54-2.75c-.69-.72-1.37-1.45-2.07-2.16l.36-.35c.7.72,1.39,1.44,2.07,2.17Zm-303.45-1.63-.37-.35c.7-.72,1.39-1.44,2.1-2.15l.35.35C156.46,156.69,155.77,157.4,155.08,158.13Zm299.29-2.68c-.71-.7-1.41-1.41-2.13-2.11l.35-.35c.72.7,1.43,1.4,2.13,2.11Zm-295.09-1.59-.35-.36,2.15-2.09.35.36Zm290.81-2.6c-.72-.69-1.45-1.37-2.19-2l.34-.36c.74.68,1.47,1.36,2.19,2.05Zm-286.48-1.55-.35-.36c.74-.68,1.47-1.36,2.22-2l.33.37Zm282.08-2.52c-.74-.66-1.49-1.33-2.24-2l.32-.38c.76.66,1.51,1.32,2.25,2ZM168,145.7l-.33-.38,2.27-2,.33.38Zm273.13-2.45c-.76-.65-1.52-1.29-2.29-1.92l.31-.39c.78.64,1.54,1.28,2.31,1.93ZM172.6,141.81l-.32-.39,2.32-1.9.31.39C174.14,140.54,173.36,141.17,172.6,141.81Zm264-2.37c-.78-.63-1.57-1.25-2.35-1.86l.3-.39c.79.61,1.58,1.23,2.36,1.86Zm-259.3-1.39-.3-.39c.78-.62,1.57-1.23,2.37-1.84l.3.4Q178.44,137.12,177.25,138.05Zm254.56-2.29c-.79-.6-1.6-1.2-2.4-1.79l.29-.41c.81.6,1.62,1.19,2.42,1.8ZM182,134.43l-.3-.41c.8-.59,1.61-1.18,2.43-1.76l.29.41C183.63,133.25,182.82,133.83,182,134.43Zm245-2.22-2.46-1.72.28-.41c.83.57,1.65,1.15,2.47,1.73Zm-240.1-1.27-.28-.41,2.47-1.69.28.41ZM422,128.81c-.83-.56-1.67-1.11-2.51-1.65l.27-.42c.84.54,1.68,1.09,2.51,1.65Zm-230.2-1.21-.27-.42q1.25-.83,2.52-1.62l.26.42C193.51,126.51,192.67,127.05,191.84,127.6Zm225.16-2c-.84-.54-1.69-1.06-2.55-1.58l.26-.43c.86.52,1.71,1,2.56,1.58ZM196.89,124.4l-.26-.43,2.56-1.54.26.43C198.59,123.36,197.74,123.88,196.89,124.4Zm215-2-2.59-1.51.24-.43c.88.49,1.74,1,2.61,1.51ZM202,121.35l-.25-.44,2.61-1.47.24.44C203.76,120.36,202.89,120.85,202,121.35Zm204.63-1.89c-.88-.49-1.76-1-2.64-1.43l.23-.44c.89.47,1.77,1,2.65,1.43Zm-199.41-1L207,118l2.64-1.39.23.44Zm194.1-1.8c-.89-.46-1.78-.91-2.68-1.35l.23-.45c.89.44,1.79.89,2.68,1.35Zm-188.79-1-.23-.44,2.69-1.33.22.46ZM396,114c-.9-.43-1.81-.86-2.72-1.27l.21-.46,2.73,1.28Zm-178-.87-.21-.46,2.72-1.24.21.46C219.74,112.26,218.83,112.68,217.93,113.1Zm172.58-1.64-2.75-1.2.19-.46,2.77,1.2Zm-167.13-.81-.2-.45q1.38-.6,2.76-1.17l.19.46ZM385,109.11c-.92-.38-1.86-.75-2.79-1.12l.18-.46c.94.36,1.87.74,2.8,1.12Zm-156.08-.74-.18-.47,2.8-1.09.18.47Zm150.48-1.45c-.93-.35-1.87-.7-2.82-1l.17-.47,2.83,1Zm-144.88-.68-.17-.47c.94-.35,1.89-.68,2.83-1l.17.47Zm139.22-1.35-2.85-1,.15-.47,2.86,1Zm-133.56-.62-.15-.48,2.85-.92.15.47ZM368,103l-2.86-.86.14-.48,2.87.86Zm-122.12-.56-.15-.48,2.89-.84.13.48Zm116.38-1.13c-1-.27-1.93-.53-2.9-.78l.13-.49,2.9.79Zm-110.62-.51-.13-.48,2.91-.76.12.49C253.57,100.31,252.61,100.57,251.64,100.82Zm104.82-1c-1-.25-1.94-.48-2.91-.7l.11-.49,2.92.7Zm-99-.46-.12-.48,2.93-.68.11.49Zm93.17-.9-2.93-.62.1-.49,2.94.62Zm-87.32-.4-.1-.49,2.94-.59.1.49Zm81.45-.79-2.95-.53.09-.49c1,.17,2,.34,2.95.53Zm-75.57-.34-.09-.5,3-.5.08.49C271.15,96.57,270.16,96.74,269.18,96.92Zm69.67-.68-3-.44.08-.5c1,.14,2,.29,3,.45ZM275.1,96l-.08-.49c1-.15,2-.29,3-.42l.06.49Zm57.82-.56-3-.36.06-.49c1,.11,2,.23,3,.36ZM281,95.16l-.06-.5c1-.12,2-.23,3-.33l.05.5C283,94.93,282,95,281,95.16ZM327,94.71c-1-.09-2-.19-3-.27l0-.5,3,.28Zm-40-.18,0-.49c1-.09,2-.18,3-.25l0,.5C289,94.36,288,94.44,287,94.53Zm34-.32c-1-.07-2-.14-3-.19l0-.5c1,0,2,.12,3,.19Zm-28-.13,0-.5c1-.06,2-.12,3-.16l0,.5C295,94,294,94,293,94.08Zm22-.21-3-.11v-.5l3,.11ZM299,93.8v-.5c1,0,2-.06,3-.08v.5C300.94,93.74,300,93.76,299,93.8ZM309,93.7l-3,0h-1.08v-.5H306l3,0Z"/></g><g id="Ellipse_10" data-name="Ellipse 10"><circle class="cls-2" cx="306.02" cy="302.68" r="301.5"/><path class="cls-3" d="M304.68,604.18l-3,0v-.5l3,0Zm3,0v-.5c1,0,2,0,3,0v.5Zm-9-.08-3-.09,0-.5,3,.09Zm15,0v-.5l3-.08,0,.5Zm-21-.19c-1,0-2-.09-3-.15l0-.5,3,.15Zm27,0,0-.5,3-.15,0,.5Zm-33-.31-3-.21,0-.49,3,.2Zm39,0,0-.5c1-.06,2-.13,3-.21l0,.5Zm-45-.42-3-.26.05-.5,3,.26Zm50.95,0,0-.5c1-.09,2-.17,3-.27l.05.5Zm-56.93-.54-3-.32,0-.5c1,.12,2,.22,3,.32Zm62.91,0-.05-.49,3-.33.05.5Zm-68.87-.64c-1-.13-2-.25-3-.39l.06-.49,3,.38Zm74.83,0-.06-.49,3-.39.06.5Zm-80.79-.76-3-.44.07-.49,3,.44Zm86.74,0-.07-.49,3-.45.07.5Zm-92.67-.87-3-.5.09-.49,2.95.5Zm98.61-.05-.08-.49,2.95-.5.09.49Zm-104.53-1L248,598.6l.1-.49,2.95.56Zm110.44,0-.09-.49c1-.19,2-.37,2.95-.57l.09.49C363.35,598.74,362.37,598.93,361.38,599.11ZM245.05,598l-2.94-.62.11-.49,2.93.62ZM367.28,598l-.11-.49c1-.2,2-.4,2.94-.62l.1.49Zm-128.1-1.21c-1-.22-2-.44-2.92-.68l.11-.48,2.92.67Zm134-.06-.11-.49c1-.22,2-.44,2.92-.68l.12.49Zm-139.8-1.32-2.91-.74.12-.48,2.91.73ZM379,595.29l-.12-.48,2.91-.74.12.48Zm-151.45-1.43-2.9-.8.13-.48,2.9.8Zm157.27-.07-.13-.49,2.89-.79.13.48Zm-163.06-1.55-2.88-.85.15-.48,2.87.85Zm168.84-.08-.14-.48,2.87-.85.15.48ZM216,590.5l-2.87-.91.15-.48,2.87.92Zm180.35-.08-.16-.47L399,589l.15.48Zm-186.09-1.77-2.85-1,.16-.48,2.85,1Zm191.8-.08-.16-.48c.95-.31,1.89-.64,2.83-1l.17.47Zm-197.49-1.9c-1-.33-1.89-.68-2.84-1l.18-.47,2.82,1Zm203.16-.07-.17-.47,2.82-1,.17.47Zm-208.82-2-2.81-1.09.18-.46c.94.37,1.87.73,2.81,1.08Zm214.45-.07-.18-.47c.94-.35,1.87-.71,2.8-1.08l.18.47Zm-220.06-2.13-2.79-1.14.2-.46,2.78,1.14Zm225.65-.06-.19-.47c.93-.37,1.85-.75,2.76-1.13l.2.46C420.78,581.58,419.85,582,418.93,582.33Zm-231.21-2.25c-.93-.39-1.85-.79-2.77-1.2l.21-.45,2.75,1.19ZM424.45,580l-.2-.46,2.74-1.19.2.46ZM182.2,577.66l-2.74-1.25.21-.45,2.74,1.25Zm247.73,0-.21-.46,2.71-1.24.22.45Zm-253.19-2.5-2.71-1.3.22-.45,2.7,1.3Zm258.61,0-.21-.45,2.69-1.3.22.45Zm-264-2.62-2.69-1.36.23-.44,2.68,1.35Zm269.4,0-.22-.45,2.66-1.35.23.45Zm5.32-2.73-.23-.45,2.64-1.4.24.44C447.82,568.83,446.94,569.29,446.05,569.76Zm-280.08,0-2.65-1.42.23-.44c.89.48,1.77,1,2.66,1.41Zm285.36-2.83-.25-.44c.88-.48,1.75-1,2.61-1.45l.25.43Zm-290.66,0-2.62-1.46.24-.44,2.63,1.47ZM456.54,564l-.25-.44,2.58-1.5.26.43Zm-301.1,0-2.6-1.52.25-.43c.86.51,1.73,1,2.6,1.51Zm306.26-3-.26-.42L464,559l.26.42Zm-311.44,0-2.57-1.57.26-.43,2.57,1.57Zm316.53-3.09-.26-.43,2.52-1.61.27.42Zm-321.65-.08c-.85-.53-1.69-1.07-2.53-1.62l.27-.42c.84.55,1.68,1.08,2.53,1.62Zm326.69-3.17-.28-.42,2.49-1.66.28.41Zm-331.74-.09c-.84-.55-1.67-1.11-2.5-1.67l.28-.41,2.5,1.66Zm336.7-3.26-.28-.41,2.46-1.71.28.41Zm-341.68-.1-2.47-1.72.29-.41,2.46,1.71Zm346.59-3.35-.29-.41,2.42-1.75.29.4Zm-351.51-.11-2.43-1.77.3-.4,2.42,1.76Zm356.34-3.43-.3-.41c.8-.59,1.6-1.19,2.39-1.8l.3.4Zm-361.18-.13-2.4-1.82.31-.39,2.39,1.81Zm366-3.52-.31-.39c.79-.61,1.57-1.23,2.35-1.85l.31.39Zm-370.72-.13-2.36-1.86.31-.39,2.35,1.85ZM496,536.82l-.32-.39,2.32-1.9.32.39Zm-380.11-.15c-.78-.63-1.55-1.27-2.32-1.91l.32-.38,2.31,1.9ZM500.61,533l-.33-.38c.77-.64,1.52-1.29,2.28-1.94l.33.37Q501.75,532,500.61,533Zm-389.35-.16q-1.16-1-2.28-2l.32-.38,2.28,2Zm393.89-3.76-.33-.37,2.24-2,.33.37C506.65,527.75,505.9,528.41,505.15,529.07Zm-398.44-.16-2.24-2,.34-.37,2.23,2Zm402.9-3.85-.33-.36,2.19-2,.35.37Zm-407.36-.17-2.2-2,.34-.36c.73.68,1.46,1.36,2.2,2ZM514,521l-.35-.36c.73-.69,1.44-1.39,2.16-2.08l.35.36Zm-416.14-.18L95.7,518.7l.35-.35,2.16,2.08Zm420.44-4-.35-.35,2.12-2.12.35.35C519.72,515.37,519,516.08,518.3,516.78ZM93.56,516.6c-.71-.7-1.41-1.41-2.12-2.13l.36-.35,2.12,2.13Zm429-4.09-.36-.34,2.08-2.16.36.34C523.91,511.08,523.22,511.8,522.52,512.51Zm-433.17-.18c-.7-.72-1.39-1.44-2.08-2.17l.36-.34L89.71,512Zm437.31-4.16-.37-.35c.68-.73,1.36-1.46,2-2.2l.37.34C528,506.7,527.34,507.43,526.66,508.17ZM85.22,508l-2-2.2.37-.34,2,2.2Zm445.49-4.24-.38-.33,2-2.25.38.33C532,502.24,531.38,503,530.71,503.73Zm-449.54-.19c-.66-.74-1.33-1.49-2-2.24l.37-.33,2,2.24Zm453.5-4.32-.38-.33,1.94-2.28.39.32ZM77.22,499l-1.94-2.28.38-.33c.64.77,1.29,1.53,1.94,2.28Zm461.32-4.41-.38-.31,1.89-2.32.39.31C539.81,493.08,539.18,493.85,538.54,494.62Zm-465.18-.18c-.64-.77-1.27-1.54-1.9-2.32l.39-.32,1.89,2.32Zm469-4.48-.39-.31c.62-.79,1.24-1.57,1.85-2.36l.4.3C543.56,488.38,543,489.17,542.32,490Zm-472.73-.18c-.63-.78-1.24-1.57-1.86-2.36l.4-.31c.61.79,1.23,1.58,1.85,2.36ZM546,485.21l-.4-.3c.61-.8,1.21-1.59,1.81-2.4l.4.3C547.22,483.62,546.62,484.42,546,485.21ZM65.91,485c-.61-.79-1.21-1.59-1.81-2.39l.41-.3c.59.8,1.19,1.6,1.8,2.39Zm483.7-4.64-.41-.3,1.76-2.43.41.29Zm-487.28-.17c-.59-.8-1.18-1.61-1.76-2.43l.41-.29,1.75,2.43Zm490.77-4.72-.41-.29c.58-.82,1.15-1.64,1.71-2.47l.42.29C554.25,473.86,553.68,474.69,553.1,475.51Zm-494.26-.15-1.71-2.47.42-.28,1.7,2.46Zm497.66-4.81-.41-.28c.56-.83,1.11-1.66,1.66-2.5l.42.28C557.62,468.89,557.06,469.72,556.5,470.55Zm-501-.14-1.65-2.49.42-.28q.81,1.26,1.65,2.49Zm504.35-4.88-.42-.27c.55-.84,1.08-1.69,1.62-2.54l.42.27C560.88,463.84,560.35,464.68,559.8,465.53Zm-507.63-.12-1.61-2.53.42-.27c.53.85,1.07,1.69,1.61,2.53Zm510.84-5-.43-.27c.53-.85,1-1.7,1.56-2.56l.43.26Zm-514-.11-1.56-2.56.43-.25c.51.85,1,1.7,1.55,2.55Zm517.13-5.05-.43-.25,1.51-2.6.43.25C567.12,453.55,566.62,454.42,566.11,455.28ZM45.89,455.2l-1.5-2.59.43-.25,1.5,2.59Zm523.22-5.13-.44-.25,1.46-2.62.44.24ZM42.91,450c-.49-.87-1-1.75-1.45-2.62l.44-.24c.48.87,1,1.74,1.45,2.61ZM572,444.79l-.44-.24c.47-.88.94-1.76,1.4-2.65l.45.23Zm-532,0-1.4-2.65.45-.23c.46.88.92,1.76,1.39,2.64Zm534.76-5.3-.45-.23c.46-.89.91-1.79,1.35-2.68l.45.22Zm-537.53,0c-.45-.88-.9-1.78-1.34-2.67l.44-.22c.45.89.89,1.78,1.35,2.67ZM34.6,434.1c-.44-.9-.87-1.8-1.3-2.7l.46-.22q.63,1.35,1.29,2.7Zm542.87,0-.45-.22,1.3-2.71.45.21C578.34,432.26,577.91,433.17,577.47,434.07ZM32,428.69c-.42-.91-.83-1.81-1.24-2.72l.46-.21,1.23,2.72Zm548-.07-.46-.2c.42-.91.84-1.83,1.25-2.74l.46.2C580.87,426.8,580.46,427.71,580,428.62ZM29.59,423.23c-.4-.91-.79-1.83-1.18-2.74l.46-.2c.39.92.78,1.83,1.18,2.74Zm552.91-.1-.46-.2c.41-.92.8-1.84,1.19-2.76l.46.19C583.3,421.29,582.9,422.21,582.5,423.13Zm-555.25-5.4c-.38-.93-.76-1.85-1.13-2.78l.46-.19c.38.93.75,1.86,1.14,2.78Zm557.61-.15-.47-.19c.39-.92.76-1.85,1.14-2.78l.46.18C585.62,415.73,585.24,416.66,584.86,417.58ZM25,412.16c-.37-.94-.73-1.87-1.08-2.81l.47-.17c.35.93.71,1.86,1.07,2.8ZM587.1,412l-.47-.18,1.08-2.81.47.18ZM22.89,406.54l-1-2.82.47-.17,1,2.82Zm566.34-.19-.47-.17,1-2.83.47.17ZM20.88,400.88c-.33-.94-.65-1.89-1-2.84l.47-.16,1,2.84Zm570.36-.21-.47-.16q.5-1.42,1-2.85l.48.16C591.89,398.77,591.57,399.72,591.24,400.67ZM19,395.19c-.3-.95-.61-1.91-.9-2.86l.47-.15c.3.95.6,1.9.91,2.85ZM593.14,395l-.47-.15c.3-1,.61-1.91.9-2.87l.48.15C593.75,393,593.45,394,593.14,395ZM17.2,389.45c-.29-.95-.57-1.91-.85-2.88l.48-.13c.28,1,.56,1.91.85,2.87Zm577.72-.25-.47-.14.84-2.88.48.14C595.49,387.29,595.21,388.24,594.92,389.2ZM15.53,383.69c-.27-1-.53-1.93-.79-2.9l.48-.13.79,2.89Zm581.06-.26-.48-.13.78-2.89.49.13ZM14,377.89c-.25-1-.49-1.94-.73-2.92l.48-.12c.24,1,.49,1.94.73,2.91Zm584.15-.26-.48-.12c.25-1,.49-1.94.73-2.91l.48.12C598.62,375.69,598.38,376.66,598.13,377.63ZM12.54,372.05c-.22-1-.45-1.94-.67-2.92l.49-.11c.22,1,.44,2,.67,2.92Zm587-.25-.48-.12c.23-1,.45-1.94.67-2.92l.49.11C600,369.85,599.79,370.83,599.56,371.8ZM11.23,366.2c-.21-1-.42-2-.62-2.94l.49-.1c.2,1,.41,2,.62,2.93Zm589.65-.26-.49-.1c.2-1,.41-2,.61-2.94l.49.1C601.29,364,601.08,365,600.88,365.94ZM10,360.31c-.19-1-.38-2-.56-2.95l.49-.09c.18,1,.37,2,.56,3Zm592-.25-.49-.1c.19-1,.37-2,.55-2.94l.49.09C602.45,358.09,602.26,359.07,602.07,360.06ZM9,354.41c-.18-1-.34-2-.5-3l.49-.08c.16,1,.33,2,.5,2.95Zm594.2-.26-.49-.08c.16-1,.33-2,.49-3l.49.08C603.48,352.18,603.32,353.17,603.15,354.15ZM8,348.48c-.15-1-.29-2-.44-3l.5-.07c.14,1,.29,2,.44,3Zm596.13-.26-.5-.07c.15-1,.3-2,.44-3l.49.07C604.4,346.24,604.26,347.23,604.11,348.22Zm-597-5.68c-.14-1-.26-2-.38-3l.49-.06c.13,1,.25,2,.38,3ZM605,342.28l-.5-.07c.13-1,.26-2,.38-3l.49.06C605.2,340.29,605.08,341.29,605,342.28ZM6.41,336.58c-.11-1-.22-2-.32-3l.5,0c.1,1,.2,2,.32,3Zm599.26-.26-.5-.06c.11-1,.22-2,.32-3l.5.05C605.88,334.33,605.78,335.32,605.67,336.32ZM5.8,330.6c-.09-1-.18-2-.26-3l.5,0c.08,1,.17,2,.26,3Zm600.47-.26-.5,0c.09-1,.18-2,.26-3l.5,0C606.45,328.35,606.36,329.35,606.27,330.34Zm-601-5.72c-.07-1-.14-2-.2-3l.5,0c.06,1,.13,2,.2,3Zm601.45-.26-.5,0c.07-1,.14-2,.2-3l.5,0C606.89,322.36,606.83,323.36,606.76,324.36ZM4.94,318.63c-.05-1-.1-2-.14-3l.5,0c0,1,.09,2,.14,3Zm602.18-.27-.5,0c.06-1,.1-2,.14-3l.5,0C607.22,316.37,607.18,317.37,607.12,318.36ZM4.69,312.64c0-1-.06-2-.09-3h.5c0,1,.05,2,.09,3Zm602.68-.27-.5,0c0-1,.06-2,.08-3h.5C607.43,310.37,607.4,311.37,607.37,312.37ZM4.55,306.65c0-1,0-2,0-3H5c0,1,0,2,0,3Zm603-.29H607c0-1,0-2,0-3h.5C607.52,304.36,607.51,305.36,607.5,306.36ZM5,300.65h-.5c0-1,0-2,0-3h.5C5.05,298.65,5,299.65,5,300.65Zm602-.29c0-1,0-2,0-3h.5c0,1,0,2,0,3ZM5.13,294.65h-.5l.09-3,.5,0Zm601.78-.27c0-1-.06-2-.09-3l.5,0c0,1,.07,2,.09,3ZM5.35,288.66l-.5,0q.06-1.5.15-3l.5,0C5.44,286.67,5.39,287.66,5.35,288.66Zm601.34-.26-.15-3,.5,0,.15,3Zm-601-5.72-.5,0,.21-3,.5,0C5.81,280.68,5.74,281.68,5.68,282.68Zm600.67-.27c-.06-1-.13-2-.21-3l.5,0c.07,1,.15,2,.21,3ZM6.13,276.7l-.5,0,.27-3,.5.05Zm599.76-.27c-.08-1-.17-2-.27-3l.5-.05c.1,1,.19,2,.27,3ZM6.7,270.73l-.5-.05.33-3,.5.05C6.91,268.75,6.8,269.74,6.7,270.73Zm598.62-.26-.33-3,.5-.06.33,3ZM7.39,264.78l-.5-.06.39-3,.5.07Q7.57,263.3,7.39,264.78Zm597.24-.27-.39-3,.49-.07c.14,1,.27,2,.39,3ZM8.19,258.84l-.49-.07q.21-1.49.45-3l.49.08Zm595.63-.27-.45-3,.49-.08c.15,1,.31,2,.45,3ZM9.12,252.92l-.49-.09c.16-1,.33-2,.5-3l.5.08C9.45,251,9.28,251.93,9.12,252.92Zm593.77-.27-.51-3,.49-.09.51,3ZM10.16,247l-.49-.09c.18-1,.37-2,.57-2.95l.49.1C10.53,245.05,10.35,246,10.16,247Zm591.68-.26-.57-2.94.49-.1.57,2.95ZM11.32,241.13l-.49-.1.63-2.94.49.11C11.73,239.18,11.53,240.15,11.32,241.13Zm589.35-.26c-.2-1-.41-2-.63-2.93l.49-.11q.33,1.47.63,2.94ZM12.6,235.28l-.49-.11c.23-1,.45-2,.69-2.93l.48.12C13.05,233.33,12.82,234.3,12.6,235.28ZM599.39,235q-.33-1.45-.69-2.91l.49-.12.69,2.92ZM14,229.45l-.49-.12c.24-1,.49-2,.74-2.91l.49.12C14.49,227.51,14.24,228.48,14,229.45Zm584-.26q-.36-1.45-.75-2.91l.49-.12c.25,1,.5,1.93.74,2.9ZM15.51,223.65l-.49-.13c.27-1,.53-1.94.81-2.9l.48.14C16,221.72,15.77,222.68,15.51,223.65Zm581-.26c-.26-1-.53-1.93-.8-2.89l.48-.14c.27,1,.54,1.93.8,2.9ZM17.14,217.88l-.48-.14c.28-1,.56-1.92.85-2.88L18,215C17.7,216,17.42,216.92,17.14,217.88Zm577.7-.26c-.28-1-.57-1.92-.86-2.87l.48-.15c.29,1,.57,1.92.86,2.88Zm-576-5.49-.47-.15c.3-1,.61-1.92.92-2.87l.47.15C19.49,210.22,19.18,211.17,18.88,212.13Zm574.21-.24c-.3-1-.61-1.91-.92-2.86l.48-.15c.31,1,.61,1.9.92,2.86ZM20.75,206.41l-.47-.16c.32-1,.64-1.91,1-2.85l.48.16C21.4,204.51,21.07,205.46,20.75,206.41Zm570.48-.22c-.32-.95-.65-1.89-1-2.84l.47-.16c.33.94.66,1.89,1,2.84Zm-568.5-5.47-.47-.17c.34-.94.69-1.89,1-2.83l.46.18Zm566.52-.19c-.34-.94-.68-1.88-1-2.81l.47-.18c.35.94.69,1.88,1,2.82ZM24.83,195.08l-.47-.18c.36-.93.72-1.87,1.09-2.8l.47.18C25.55,193.21,25.18,194.15,24.83,195.08Zm562.33-.17c-.36-.93-.72-1.86-1.09-2.79l.47-.19c.36.93.73,1.87,1.08,2.8ZM27,189.49l-.46-.19c.38-.93.76-1.86,1.15-2.79l.46.2C27.79,187.63,27.41,188.56,27,189.49ZM585,189.34q-.57-1.4-1.14-2.76l.46-.2,1.14,2.77Zm-555.61-5.4-.46-.2c.4-.92.8-1.84,1.21-2.76l.45.2Zm553.3-.11c-.39-.91-.79-1.83-1.19-2.74l.46-.2c.4.91.8,1.83,1.19,2.74ZM31.78,178.44l-.45-.21c.41-.91.83-1.82,1.25-2.73l.46.21C32.61,176.62,32.2,177.53,31.78,178.44Zm548.46-.07c-.41-.91-.83-1.81-1.25-2.71l.45-.21c.42.9.84,1.81,1.25,2.71ZM34.32,173l-.45-.22c.43-.9.87-1.81,1.31-2.71l.45.22C35.19,171.18,34.75,172.08,34.32,173Zm543.39,0c-.43-.9-.86-1.8-1.3-2.69l.45-.22c.44.89.88,1.79,1.31,2.69Zm-2.63-5.36c-.44-.89-.9-1.78-1.35-2.67l.44-.23c.46.89.91,1.78,1.36,2.67ZM37,167.59l-.45-.22c.45-.9.91-1.79,1.37-2.68l.44.23C37.87,165.81,37.42,166.7,37,167.59Zm535.38-5.31-1.41-2.63.44-.24,1.41,2.64Zm-532.63,0-.44-.23c.47-.89.94-1.77,1.42-2.65l.44.23C40.66,160.48,40.19,161.37,39.72,162.25ZM569.5,157c-.48-.87-1-1.74-1.46-2.61l.44-.24c.49.86,1,1.73,1.46,2.61ZM42.58,157l-.44-.24,1.47-2.63.44.25Zm524-5.14c-.5-.86-1-1.72-1.51-2.58l.43-.25c.51.85,1,1.71,1.52,2.58Zm-521-.08-.43-.25c.5-.87,1-1.74,1.52-2.6l.43.26Zm518-5.06-1.56-2.55.42-.26c.53.84,1,1.69,1.57,2.55Zm-514.89-.11-.43-.26,1.58-2.56.42.27C49.65,144.88,49.13,145.73,48.61,146.58Zm511.74-5-1.62-2.52.42-.27,1.62,2.52Zm-508.57-.13-.42-.26L53,138.69l.42.27Zm505.31-4.89c-.55-.83-1.1-1.66-1.66-2.49l.41-.28,1.67,2.49Zm-502-.14-.42-.28,1.68-2.49.41.28Zm498.69-4.82L552,129.18l.41-.29,1.72,2.46Zm-495.32-.15L58,131.2c.57-.83,1.14-1.65,1.72-2.46l.41.28Zm491.86-4.73c-.58-.81-1.17-1.62-1.76-2.42l.4-.3c.6.81,1.18,1.62,1.77,2.43Zm-488.4-.17-.4-.29,1.77-2.43.4.3Zm484.85-4.65c-.59-.8-1.2-1.59-1.81-2.38l.4-.31,1.81,2.39Zm-481.28-.17-.4-.3,1.82-2.4.39.31C66.65,120.16,66.05,121,65.45,121.76Zm477.64-4.58-1.86-2.35.39-.31c.63.78,1.25,1.57,1.86,2.35ZM69.1,117l-.39-.31c.62-.79,1.24-1.57,1.87-2.35l.39.31C70.34,115.43,69.72,116.21,69.1,117Zm470.25-4.49c-.63-.78-1.27-1.55-1.9-2.31l.38-.32c.64.76,1.28,1.54,1.91,2.31Zm-466.5-.19-.38-.32c.63-.77,1.27-1.55,1.91-2.31l.38.32C74.12,110.77,73.48,111.54,72.85,112.32Zm462.67-4.42-1.95-2.27.38-.33,1.95,2.28Zm-458.83-.19-.38-.32,2-2.28.38.33C78,106.19,77.34,107,76.69,107.71Zm454.91-4.33-2-2.23.37-.34c.67.74,1.34,1.49,2,2.24Zm-451-.19-.37-.34c.66-.75,1.33-1.49,2-2.23l.37.33C82,101.69,81.29,102.44,80.62,103.19Zm447-4.26c-.67-.73-1.35-1.47-2-2.19l.37-.35,2,2.2ZM84.64,98.74l-.36-.34c.67-.74,1.36-1.47,2-2.2l.37.34C86,97.27,85.32,98,84.64,98.74Zm438.84-4.18c-.69-.72-1.38-1.44-2.08-2.15l.36-.35c.7.71,1.39,1.43,2.08,2.16ZM88.75,94.37,88.39,94c.69-.72,1.39-1.44,2.09-2.15l.35.35ZM519.3,90.28l-2.13-2.12.35-.35c.72.7,1.43,1.4,2.13,2.11ZM92.94,90.09l-.35-.36c.7-.71,1.41-1.41,2.13-2.11l.35.35Zm422.09-4L512.86,84l.34-.36c.73.68,1.45,1.38,2.17,2.07ZM97.21,85.89l-.34-.36c.72-.7,1.44-1.39,2.17-2.07l.34.36C98.66,84.5,97.93,85.19,97.21,85.89ZM510.67,82l-2.21-2,.34-.37,2.21,2Zm-409.1-.18-.34-.37,2.21-2,.34.37C103,80.42,102.3,81.09,101.57,81.77Zm404.67-3.85-2.25-2,.33-.37,2.25,2ZM106,77.75l-.34-.38,2.25-2,.33.38C107.5,76.42,106.75,77.08,106,77.75ZM501.72,74,499.43,72l.33-.38,2.29,1.94Zm-391.2-.16-.33-.38,2.29-1.94.32.38Zm386.61-3.69c-.77-.64-1.55-1.27-2.33-1.9l.32-.39,2.33,1.9Zm-382-.16-.32-.38c.77-.64,1.55-1.27,2.33-1.9l.31.39Zm377.35-3.61L490.1,64.5l.3-.39c.8.61,1.58,1.23,2.37,1.85Zm-372.69-.14-.31-.39L121.83,64l.3.4Zm368-3.53-2.4-1.8.3-.4,2.4,1.8Zm-363.21-.13-.3-.4,2.4-1.8.29.4ZM482.9,59.1l-2.43-1.75.28-.41c.82.58,1.63,1.17,2.44,1.76ZM129.32,59l-.3-.4,2.44-1.75.29.41C130.93,57.81,130.12,58.4,129.32,59ZM478,55.62c-.82-.57-1.64-1.14-2.47-1.7l.28-.42,2.48,1.71Zm-343.82-.11-.28-.41,2.46-1.7.29.42Zm338.87-3.27-2.51-1.66.28-.42,2.5,1.66Zm-333.92-.1-.28-.41c.83-.56,1.66-1.11,2.5-1.65l.27.42ZM468,49c-.84-.54-1.69-1.07-2.54-1.6l.27-.43,2.54,1.61Zm-323.89-.08-.27-.42c.84-.54,1.69-1.07,2.54-1.6l.26.42Zm318.8-3.1-2.57-1.56.26-.43,2.57,1.56ZM149.21,45.7l-.26-.42c.85-.53,1.71-1,2.57-1.55l.25.42Zm308.58-3-2.6-1.5.25-.43c.87.49,1.74,1,2.6,1.5Zm-303.44,0-.26-.43,2.6-1.5.24.44ZM452.58,39.7,450,38.25l.24-.44,2.63,1.46Zm-293,0-.25-.44,2.62-1.44.24.43ZM447.3,36.83l-2.66-1.4.23-.45,2.67,1.41Zm-282.52,0-.23-.44c.88-.47,1.76-.94,2.65-1.4l.23.45ZM442,34.06c-.89-.46-1.79-.91-2.69-1.35l.23-.45,2.69,1.35Zm-271.89,0-.22-.44c.89-.46,1.78-.9,2.67-1.34l.23.44Zm5.36-2.65-.22-.45,2.7-1.28.22.45C177.23,30.54,176.34,31,175.44,31.4Zm261.14,0-2.71-1.29.21-.45c.91.42,1.82.85,2.72,1.29ZM180.84,28.86l-.2-.45c.9-.42,1.81-.83,2.72-1.23l.2.45Zm250.3,0L428.4,27.6l.21-.46,2.74,1.24ZM186.3,26.43l-.2-.46c.91-.39,1.83-.79,2.75-1.17l.19.46C188.12,25.64,187.21,26,186.3,26.43Zm239.35,0-2.76-1.18.19-.46,2.77,1.18ZM191.79,24.11l-.18-.46,2.78-1.13.18.47Zm228.32-.06-2.79-1.12.19-.47,2.79,1.13ZM197.36,21.89l-.18-.47L200,20.35l.17.47Zm217.16-.06-2.81-1.07.18-.47,2.81,1.07ZM203,19.78l-.17-.47,2.83-1,.17.47Zm205.92-.07-2.83-1,.16-.47,2.84,1ZM208.63,17.79l-.16-.48,2.84-.95.16.47C210.52,17.15,209.57,17.46,208.63,17.79Zm194.58-.08-2.85-.95.16-.48,2.86,1ZM214.32,15.9l-.15-.47c1-.31,1.9-.61,2.86-.9l.15.48Zm183.18-.07c-1-.31-1.92-.6-2.88-.9l.15-.48,2.88.9ZM220.05,14.14l-.15-.48c1-.29,1.92-.57,2.89-.84l.13.48C222,13.57,221,13.85,220.05,14.14Zm171.7-.08-2.87-.83.13-.48,2.89.83ZM225.81,12.49l-.13-.49,2.89-.78.13.48ZM386,12.42c-1-.27-1.93-.53-2.89-.78l.12-.49,2.9.78ZM231.6,11l-.12-.48,2.91-.73.12.49Zm148.59-.06-2.9-.73.11-.48c1,.23,2,.48,2.92.72ZM237.43,9.53,237.31,9c1-.22,1.95-.45,2.93-.66l.11.48Zm136.94-.06-2.92-.66.1-.49,2.93.66ZM243.28,8.23l-.11-.49,2.94-.61.1.49Zm125.24-.06-2.94-.6.1-.49,2.94.61ZM249.15,7l-.09-.49L252,6l.09.5ZM362.64,7l-2.95-.55.09-.49c1,.17,2,.36,3,.54ZM255.05,6l-.08-.5,3-.49.08.5Zm101.69-.05c-1-.16-2-.33-3-.48l.08-.5,3,.49ZM261,5l-.07-.5,3-.43.07.5Zm89.85,0-3-.43.07-.49c1,.13,2,.28,3,.43ZM266.91,4.2l-.07-.5,3-.37.06.5Zm78,0-3-.36.06-.5,3,.37Zm-72-.67L272.8,3l3-.31,0,.49Zm66.07,0-3-.31.05-.5L339,3Zm-60.11-.57,0-.5,3-.25,0,.5Zm54.14,0-3-.25,0-.5,3,.25ZM284.8,2.42l0-.5,3-.2,0,.5ZM327,2.4l-3-.19,0-.5,3,.19Zm-36.21-.34,0-.5,3-.14,0,.5Zm30.23,0-3-.14,0-.5,3,.14Zm-24.25-.23v-.5l3-.08v.5Zm18.25,0-3-.07v-.5l3,.07ZM302.75,1.7V1.2l3,0v.5Zm6.27,0h-3v-.5h3Z"/></g></g></svg>