<?xml version="1.0" encoding="utf-8"?>
<!-- Generator: Adobe Illustrator 24.3.0, SVG Export Plug-In . SVG Version: 6.00 Build 0)  -->
<svg version="1.1" id="Layer_1" xmlns="http://www.w3.org/2000/svg" xmlns:xlink="http://www.w3.org/1999/xlink" x="0px" y="0px"
	 viewBox="0 0 576 165" style="enable-background:new 0 0 576 165;" xml:space="preserve">
<style type="text/css">
	.st0{fill:#FFFFFF;}
</style>
<g>
	<path class="st0" d="M115.6,71.6H68.2c-1.2,0-2.2,1-2.2,2.2V97c0,1.2,1,2.2,2.2,2.2h18.5V128c0,0-4.2,1.4-15.6,1.4
		c-13.5,0-32.5-4.9-32.5-46.6c0-41.6,19.7-47.1,38.2-47.1c16,0,22.9,2.8,27.3,4.2c1.4,0.4,2.7-1,2.7-2.2l5.3-22.4
		c0-0.6-0.2-1.3-0.8-1.7c-1.8-1.3-12.7-7.4-40.1-7.4C39.4,6.3,6.9,19.8,6.9,84.5c0,64.7,37.2,74.4,68.5,74.4
		c25.9,0,41.7-11.1,41.7-11.1c0.6-0.4,0.7-1.3,0.7-1.7V73.8C117.8,72.6,116.8,71.6,115.6,71.6z"/>
	<path class="st0" d="M359.8,14.1c0-1.2-1-2.2-2.2-2.2H331c-1.2,0-2.2,1-2.2,2.2c0,0,0,51.6,0,51.6h-41.6V14.1c0-1.2-1-2.2-2.2-2.2
		h-26.7c-1.2,0-2.2,1-2.2,2.2v139.7c0,1.2,1,2.2,2.2,2.2h26.7c1.2,0,2.2-1,2.2-2.2V94h41.6c0,0-0.1,59.7-0.1,59.7
		c0,1.2,1,2.2,2.2,2.2h26.8c1.2,0,2.2-1,2.2-2.2V14.1z"/>
	<g>
		<g>
			<path class="st0" d="M165.9,32.4c0-9.6-7.7-17.4-17.2-17.4c-9.5,0-17.2,7.8-17.2,17.4c0,9.6,7.7,17.4,17.2,17.4
				C158.2,49.8,165.9,42,165.9,32.4z"/>
			<path class="st0" d="M164,124.3c0-3.6,0-64.5,0-64.5c0-1.2-1-2.2-2.2-2.2h-26.6c-1.2,0-2.3,1.3-2.3,2.5c0,0,0,77.6,0,92.4
				c0,2.7,1.7,3.5,3.9,3.5c0,0,11.4,0,24,0c2.6,0,3.3-1.3,3.3-3.6C164,147.4,164,128,164,124.3z"/>
		</g>
	</g>
	<path class="st0" d="M461.3,57.8h-26.5c-1.2,0-2.2,1-2.2,2.2v68.5c0,0-6.7,4.9-16.3,4.9c-9.5,0-12.1-4.3-12.1-13.7
		c0-9.4,0-59.7,0-59.7c0-1.2-1-2.2-2.2-2.2h-26.9c-1.2,0-2.2,1-2.2,2.2c0,0,0,36.5,0,64.2c0,27.8,15.5,34.6,36.8,34.6
		c17.5,0,31.6-9.7,31.6-9.7s0.7,5.1,1,5.7c0.3,0.6,1.1,1.2,1.9,1.2l17.1-0.1c1.2,0,2.2-1,2.2-2.2l0-93.8
		C463.5,58.8,462.5,57.8,461.3,57.8z"/>
	<path class="st0" d="M533.7,54.6c-15,0-25.3,6.7-25.3,6.7V14.1c0-1.2-1-2.2-2.2-2.2h-26.8c-1.2,0-2.2,1-2.2,2.2v139.7
		c0,1.2,1,2.2,2.2,2.2c0,0,18.6,0,18.6,0c0.8,0,1.5-0.4,1.9-1.2c0.5-0.8,1.1-6.4,1.1-6.4s10.9,10.4,31.7,10.4
		c24.3,0,38.3-12.3,38.3-55.4C571,60.3,548.7,54.6,533.7,54.6z M523.2,133.3c-9.2-0.3-15.4-4.4-15.4-4.4V84.6c0,0,6.1-3.8,13.7-4.4
		c9.5-0.9,18.7,2,18.7,24.8C540.2,129,536.1,133.7,523.2,133.3z"/>
	<path class="st0" d="M240.7,57.5h-20c0,0,0-26.4,0-26.4c0-1-0.5-1.5-1.7-1.5h-27.3c-1.1,0-1.6,0.5-1.6,1.5v27.3
		c0,0-13.7,3.3-14.6,3.6c-0.9,0.3-1.6,1.1-1.6,2.1v17.2c0,1.2,1,2.2,2.2,2.2h14c0,0,0,18,0,41.3c0,30.7,21.5,33.7,36.1,33.7
		c6.6,0,14.6-2.1,15.9-2.6c0.8-0.3,1.3-1.1,1.3-2l0-18.9c0-1.2-1-2.2-2.2-2.2c-1.2,0-4.2,0.5-7.2,0.5c-9.8,0-13.2-4.6-13.2-10.5
		c0-5.9,0-39.3,0-39.3h20c1.2,0,2.2-1,2.2-2.2V59.8C242.9,58.5,241.9,57.5,240.7,57.5z"/>
</g>
</svg>
