<?xml version="1.0" encoding="UTF-8"?>
<svg xmlns="http://www.w3.org/2000/svg" xmlns:xlink="http://www.w3.org/1999/xlink" width="32pt" height="32pt" viewBox="0 0 32 32" version="1.1">
<g id="surface1">
<path style=" stroke:none;fill-rule:nonzero;fill:#71F695;fill-opacity:1;" d="M 16 32 C 7.175781 32 0 24.824219 0 16 C 0 7.175781 7.175781 0 16 0 C 24.824219 0 32 7.175781 32 16 C 32 24.824219 24.824219 32 16 32 Z M 16 2 C 8.28125 2 2 8.28125 2 16 C 2 23.71875 8.28125 30 16 30 C 23.71875 30 30 23.71875 30 16 C 30 8.28125 23.71875 2 16 2 Z M 16 2 "/>
<path style=" stroke:none;fill-rule:nonzero;fill:#71F695;fill-opacity:1;" d="M 23 17 L 9 17 C 8.449219 17 8 16.550781 8 16 C 8 15.449219 8.449219 15 9 15 L 23 15 C 23.550781 15 24 15.449219 24 16 C 24 16.550781 23.550781 17 23 17 Z M 23 17 "/>
<path style=" stroke:none;fill-rule:nonzero;fill:#71F695;fill-opacity:1;" d="M 16 24 C 15.449219 24 15 23.550781 15 23 L 15 9 C 15 8.449219 15.449219 8 16 8 C 16.550781 8 17 8.449219 17 9 L 17 23 C 17 23.550781 16.550781 24 16 24 Z M 16 24 "/>
</g>
</svg>
